<svg width="28" height="30" viewBox="0 0 28 30" fill="none" xmlns="http://www.w3.org/2000/svg">
<path d="M27.299 22.3473C27.2197 22.2414 27.1088 22.1633 26.9824 22.1242C26.8559 22.0851 26.7203 22.087 26.595 22.1297C23.8241 23.0673 20.8065 22.9634 18.1066 21.8372C15.4068 20.7111 13.2096 18.64 11.9262 16.0113C10.8121 13.5252 10.5622 10.7378 11.2163 8.09323C11.8705 5.44865 13.3911 3.09918 15.5358 1.41928C15.6417 1.3399 15.7198 1.22906 15.7589 1.1026C15.798 0.976151 15.7961 0.840575 15.7534 0.71528C15.7102 0.587117 15.6274 0.475963 15.517 0.397774C15.4066 0.319584 15.2743 0.278381 15.139 0.28008C13.1127 0.291186 11.1109 0.72496 9.26176 1.55367C7.41258 2.38239 5.75666 3.58781 4.39983 5.09288C2.4996 7.197 1.24625 9.80432 0.789919 12.6025C0.333587 15.4007 0.693619 18.2712 1.82689 20.87C2.96016 23.4688 4.81862 25.6858 7.17964 27.2555C9.54066 28.8251 12.3041 29.6808 15.139 29.7201C17.5637 29.7185 19.9495 29.1112 22.0799 27.9533C24.2102 26.7953 26.0174 25.1235 27.3374 23.0897C27.413 22.9787 27.4502 22.8461 27.4433 22.712C27.4363 22.5779 27.3857 22.4498 27.299 22.3473ZM15.139 28.4401C12.5482 28.4087 10.0214 27.6305 7.86185 26.1988C5.70227 24.7671 4.0016 22.7428 2.96385 20.3687C1.92609 17.9946 1.59533 15.3714 2.01124 12.814C2.42714 10.2566 3.57206 7.87343 5.30863 5.95048C7.40688 3.62615 10.258 2.11674 13.3598 1.68808C11.4989 3.62689 10.2607 6.07816 9.8045 8.72652C9.34828 11.3749 9.69492 14.0992 10.7998 16.5489C12.0469 19.1978 14.145 21.3529 16.7595 22.6706C19.374 23.9883 22.3543 24.3927 25.2254 23.8193C23.9782 25.2728 22.4305 26.4386 20.6892 27.2364C18.9479 28.0341 17.0544 28.4448 15.139 28.4401Z" fill="#404040"/>
</svg>
