<svg width="32" height="32" viewBox="0 0 32 32" fill="none" xmlns="http://www.w3.org/2000/svg">
<g clip-path="url(#clip0_1560_7388)">
<path d="M27.4143 26.6655L26.6655 27.4143C26.6559 27.4239 26.6399 27.4239 26.6335 27.4143L23.5839 24.3647C23.5743 24.3551 23.5743 24.3391 23.5839 24.3327L24.3327 23.5839C24.3423 23.5743 24.3583 23.5743 24.3647 23.5839L27.4143 26.6335C27.4239 26.6431 27.4239 26.6559 27.4143 26.6655Z" fill="#AEAEAE"/>
<path d="M24.3966 8.352L23.6478 7.6032C23.6382 7.5936 23.6382 7.5776 23.6478 7.5712L26.6974 4.5216C26.707 4.512 26.723 4.512 26.7294 4.5216L27.4782 5.2704C27.4878 5.28 27.4878 5.296 27.4782 5.3024L24.4318 8.352C24.4222 8.3616 24.4062 8.3616 24.3966 8.352Z" fill="#AEAEAE"/>
<path d="M5.27016 27.4785L4.52136 26.7297C4.51176 26.7201 4.51176 26.7041 4.52136 26.6977L7.57096 23.6481C7.58056 23.6385 7.59656 23.6385 7.60296 23.6481L8.35176 24.3969C8.36136 24.4065 8.36136 24.4225 8.35176 24.4289L5.30216 27.4785C5.29256 27.4881 5.27656 27.4881 5.27016 27.4785Z" fill="#AEAEAE"/>
<path d="M16.4639 31.5168H15.4047C15.3919 31.5168 15.3823 31.5072 15.3823 31.4944V27.1808C15.3823 27.168 15.3919 27.1584 15.4047 27.1584H16.4639C16.4767 27.1584 16.4863 27.168 16.4863 27.1808V31.4912C16.4863 31.5072 16.4767 31.5168 16.4639 31.5168Z" fill="#AEAEAE"/>
<path d="M16.4 4.84155H15.3408C15.328 4.84155 15.3184 4.83195 15.3184 4.81915V0.505554C15.3184 0.492754 15.328 0.483154 15.3408 0.483154H16.4C16.4128 0.483154 16.4224 0.492754 16.4224 0.505554V4.81595C16.4224 4.83195 16.4128 4.84155 16.4 4.84155Z" fill="#AEAEAE"/>
<path d="M0.319824 16.4319V15.3727C0.319824 15.3599 0.329424 15.3503 0.342224 15.3503H4.65262C4.66542 15.3503 4.67502 15.3599 4.67502 15.3727V16.4319C4.67502 16.4447 4.66542 16.4543 4.65262 16.4543H0.342224C0.329424 16.4543 0.319824 16.4447 0.319824 16.4319Z" fill="#AEAEAE"/>
<path d="M27.3213 16.4319V15.3727C27.3213 15.3599 27.3309 15.3503 27.3437 15.3503H31.6541C31.6669 15.3503 31.6765 15.3599 31.6765 15.3727V16.4319C31.6765 16.4447 31.6669 16.4543 31.6541 16.4543H27.3437C27.3309 16.4543 27.3213 16.4447 27.3213 16.4319Z" fill="#AEAEAE"/>
<path d="M8.38399 7.63519L7.63519 8.38399C7.62559 8.39359 7.60959 8.39359 7.60319 8.38399L4.55359 5.33439C4.54399 5.32479 4.54399 5.30879 4.55359 5.30239L5.30239 4.55359C5.31199 4.54399 5.32799 4.54399 5.33439 4.55359L8.38399 7.60319C8.39359 7.60959 8.39359 7.62559 8.38399 7.63519Z" fill="#AEAEAE"/>
<path d="M15.8368 6.85767C10.9152 6.85767 6.9248 10.8481 6.9248 15.7697C6.9248 20.6913 10.9152 24.6817 15.8368 24.6817C20.7584 24.6817 24.7488 20.6913 24.7488 15.7697C24.752 10.8481 20.7616 6.85767 15.8368 6.85767ZM15.8368 23.1905C11.7408 23.1905 8.4192 19.8689 8.4192 15.7729C8.4192 11.6769 11.7408 8.35527 15.8368 8.35527C19.9328 8.35527 23.2544 11.6769 23.2544 15.7729C23.2544 19.8689 19.9328 23.1905 15.8368 23.1905Z" fill="#AEAEAE"/>
</g>
<defs>
<clipPath id="clip0_1560_7388">
<rect width="32" height="32" fill="white"/>
</clipPath>
</defs>
</svg>
