<svg width="214" height="136" viewBox="0 0 214 136" fill="none" xmlns="http://www.w3.org/2000/svg">
<path d="M2.87687 90.724C9.599 85.0579 31.6046 68.1297 46.9422 65.6484C58.0619 63.8494 86.4049 64.8388 97.8188 76.0755C109.233 87.3121 109.955 100.065 104.566 110.082C99.1764 120.099 82.5478 127.072 73.9072 116.774C65.2667 106.477 63.8964 95.074 65.7193 86.1794C68.0809 74.6563 79.9543 58.3268 93.9555 49.7038C107.957 41.0809 151.094 31.3856 170.187 30.4793" stroke="white" stroke-dasharray="2 5"/>
<path d="M156.28 14.9491L150.46 32.3291L163.35 21.6991L213.2 2.11914L156.28 14.9491Z" fill="#F6FAF9"/>
<path opacity="0.1" d="M156.28 14.9491L150.46 32.3291L163.35 21.6991L213.2 2.11914L156.28 14.9491Z" fill="black"/>
<path d="M165.15 25.6692L150.46 32.3292L163.35 21.6992L165.15 25.6692Z" fill="white"/>
<path d="M163.35 21.6991L213.2 2.11914L172.99 43.4991L163.35 21.6991Z" fill="#F6FAF9"/>
<path d="M156.28 14.95L135 2L213.2 2.12L156.28 14.95Z" fill="#F6FAF9"/>
</svg>
