<?xml version="1.0" encoding="UTF-8"?>
<svg width="887px" height="177px" viewBox="0 0 887 177" version="1.1" xmlns="http://www.w3.org/2000/svg" xmlns:xlink="http://www.w3.org/1999/xlink">
    <!-- Generator: Sketch 63.1 (92452) - https://sketch.com -->
    <title>lightLogo</title>
    <desc>Created with Sketch.</desc>
    <g id="Page-1" stroke="none" stroke-width="1" fill="none" fill-rule="evenodd">
        <g id="lightLogo" fill-rule="nonzero">
            <g id="Group" fill="#8437EC">
                <polygon id="Path" points="193.01 97.65 96.99 154.81 0.99 97.62 0.98 119.1 96.98 176.29 193 119.13"></polygon>
                <polygon id="Path" points="193.02 62.55 97 119.71 0.99 62.52 0.99 85.15 96.99 142.34 193.01 85.18"></polygon>
                <polygon id="Path" points="134.65 21.9 117.11 32.03 80.62 53.08 80.64 53.11 98.16 63.22 134.66 42.16 153.64 53.12 98.11 85.17 42.59 53.1 98.12 21.06 115.66 10.94 98.12 0.81 7.52 53.1 98.11 105.42 188.72 53.12 152.2 32.04"></polygon>
            </g>
            <g id="Group" transform="translate(253.000000, 19.000000)" fill="#404040">
                <path d="M37.96,131.86 C28.08,131.86 19.95,129.7 13.59,125.37 C7.23,121.04 3.62,115.45 2.77,108.59 L23.06,108.59 C23.86,111.24 25.67,113.38 28.49,115.01 C31.3,116.64 34.65,117.46 38.53,117.46 C43.78,117.46 47.87,116.12 50.8,113.45 C53.73,110.78 55.2,107.2 55.2,102.7 L55.2,89.36 L54.77,89.36 C52.97,93.47 49.97,96.77 45.76,99.25 C41.55,101.73 36.73,102.97 31.29,102.97 C21.93,102.97 14.44,99.57 8.84,92.76 C3.24,85.95 0.43,76.66 0.43,64.88 C0.43,52.82 3.22,43.32 8.8,36.36 C14.38,29.41 21.99,25.93 31.64,25.93 C37.03,25.93 41.78,27.23 45.9,29.83 C50.02,32.43 53.09,35.95 55.12,40.4 L55.47,40.4 L55.47,27.14 L75.9,27.14 L75.9,102.12 C75.9,111.15 72.44,118.36 65.51,123.76 C58.58,129.16 49.4,131.86 37.96,131.86 Z M38.31,87.03 C43.51,87.03 47.64,85.08 50.69,81.18 C53.74,77.28 55.27,71.9 55.27,65.04 C55.27,58.18 53.73,52.72 50.66,48.65 C47.59,44.58 43.47,42.55 38.32,42.55 C33.21,42.55 29.16,44.57 26.15,48.62 C23.15,52.66 21.65,58.14 21.65,65.04 C21.65,71.95 23.14,77.34 26.12,81.21 C29.09,85.09 33.16,87.03 38.31,87.03 Z" id="Shape"></path>
                <polygon id="Path" points="88.43 103.2 88.43 0.84 109.14 0.84 109.14 103.2"></polygon>
                <path d="M191.89,27.16 L191.89,103.2 L171.89,103.2 L171.89,89.51 L171.46,89.51 C167.49,99.58 159.9,104.62 148.69,104.62 C140.37,104.62 133.72,102.08 128.76,97 C123.8,91.92 121.31,84.98 121.31,76.18 L121.31,27.16 L142.02,27.16 L142.02,71.85 C142.02,76.91 143.24,80.77 145.67,83.41 C148.11,86.06 151.62,87.38 156.2,87.38 C160.79,87.38 164.43,85.87 167.12,82.84 C169.81,79.81 171.16,75.77 171.16,70.71 L171.16,27.16 L191.89,27.16 L191.89,27.16 Z" id="Path"></path>
                <path d="M254.28,79.94 L273.29,79.94 C272.16,87.41 268.43,93.43 262.12,97.99 C255.81,102.55 247.97,104.83 238.6,104.83 C226.92,104.83 217.76,101.33 211.11,94.33 C204.47,87.33 201.14,77.73 201.14,65.53 C201.14,53.38 204.45,43.67 211.07,36.41 C217.69,29.15 226.61,25.52 237.81,25.52 C248.83,25.52 257.6,28.97 264.13,35.88 C270.66,42.79 273.92,52.03 273.92,63.62 L273.92,69.93 L221.5,69.93 L221.5,71.21 C221.5,76.65 223.1,81.06 226.29,84.44 C229.48,87.82 233.7,89.51 238.95,89.51 C242.73,89.51 246,88.65 248.74,86.92 C251.49,85.2 253.33,82.87 254.28,79.94 Z M238.03,40.85 C233.54,40.85 229.79,42.39 226.79,45.46 C223.79,48.54 222.1,52.46 221.72,57.24 L254,57.24 C253.76,52.37 252.19,48.42 249.28,45.39 C246.37,42.37 242.62,40.85 238.03,40.85 Z" id="Shape"></path>
                <path d="M281.84,49.51 C281.84,42.27 284.75,36.47 290.56,32.09 C296.38,27.72 304.16,25.53 313.9,25.53 C323.41,25.53 331.04,27.75 336.81,32.2 C342.58,36.65 345.53,42.56 345.68,49.93 L326.6,49.93 C326.36,46.86 325.1,44.44 322.81,42.69 C320.52,40.94 317.45,40.07 313.62,40.07 C310.03,40.07 307.15,40.82 305,42.3 C302.85,43.79 301.77,45.76 301.77,48.22 C301.77,51.91 305.08,54.53 311.7,56.09 L326.24,59.21 C333.85,60.91 339.33,63.38 342.66,66.62 C345.99,69.86 347.66,74.32 347.66,79.99 C347.66,87.46 344.54,93.47 338.3,98.01 C332.06,102.55 323.9,104.82 313.83,104.82 C303.8,104.82 295.79,102.6 289.78,98.15 C283.77,93.71 280.49,87.72 279.92,80.2 L300.14,80.2 C300.66,83.42 302.14,85.9 304.57,87.65 C307.01,89.4 310.28,90.27 314.4,90.27 C318.32,90.27 321.41,89.55 323.66,88.11 C325.91,86.67 327.03,84.69 327.03,82.19 C327.03,80.25 326.32,78.7 324.9,77.54 C323.48,76.38 321.07,75.4 317.66,74.6 L303.62,71.48 C289.1,68.19 281.84,60.86 281.84,49.51 Z" id="Path"></path>
                <path d="M362.03,9.64 L382.74,9.64 L382.74,27.16 L396.79,27.16 L396.79,42.77 L382.74,42.77 L382.74,79.16 C382.74,84.88 385.72,87.74 391.68,87.74 C393.62,87.74 395.3,87.62 396.72,87.39 L396.72,102.64 C394.31,103.21 391.02,103.49 386.86,103.49 C377.92,103.49 371.55,101.88 367.74,98.67 C363.93,95.45 362.03,90.13 362.03,82.71 L362.03,42.77 L351.32,42.77 L351.32,27.16 L362.03,27.16 L362.03,9.64 Z" id="Path"></path>
                <path d="M428.53,104.41 C421.2,104.41 415.12,102.26 410.3,97.95 C405.48,93.65 403.06,88.11 403.06,81.35 C403.06,74.45 405.61,69.03 410.72,65.11 C415.83,61.19 423.13,58.94 432.64,58.37 L451.79,57.24 L451.79,52.2 C451.79,48.7 450.64,45.96 448.35,43.97 C446.06,41.98 442.95,40.99 439.02,40.99 C435.24,40.99 432.15,41.84 429.76,43.54 C427.37,45.24 425.92,47.54 425.4,50.42 L406.46,50.42 C406.84,42.95 410.03,36.93 416.04,32.37 C422.04,27.81 430.01,25.52 439.95,25.52 C449.69,25.52 457.49,27.84 463.36,32.47 C469.22,37.11 472.16,43.25 472.16,50.91 L472.16,103.19 L452.16,103.19 L452.16,91.56 L451.74,91.56 C449.66,95.53 446.49,98.67 442.23,100.96 C437.97,103.25 433.4,104.41 428.53,104.41 Z M435.34,89.44 C439.93,89.44 443.82,88.1 447.01,85.43 C450.2,82.76 451.8,79.39 451.8,75.32 L451.8,69.79 L435.77,70.78 C431.89,71.07 428.9,72.03 426.8,73.69 C424.69,75.35 423.64,77.52 423.64,80.22 C423.64,83.06 424.7,85.3 426.83,86.96 C428.96,88.62 431.8,89.44 435.34,89.44 Z" id="Shape"></path>
                <path d="M553.13,55.46 L533.91,55.46 C533.29,51.35 531.68,48.04 529.05,45.53 C526.43,43.02 523.03,41.77 518.87,41.77 C513.72,41.77 509.66,43.84 506.7,47.98 C503.74,52.12 502.27,57.83 502.27,65.11 C502.27,72.53 503.75,78.3 506.7,82.42 C509.66,86.53 513.73,88.59 518.94,88.59 C523.05,88.59 526.41,87.42 529.01,85.08 C531.61,82.74 533.24,79.49 533.9,75.33 L553.19,75.33 C552.67,84.31 549.29,91.48 543.05,96.82 C536.81,102.17 528.7,104.84 518.72,104.84 C507.18,104.84 498.05,101.31 491.34,94.24 C484.62,87.17 481.27,77.46 481.27,65.12 C481.27,52.97 484.64,43.33 491.38,36.21 C498.12,29.09 507.19,25.53 518.58,25.53 C528.7,25.53 536.87,28.32 543.09,33.9 C549.31,39.48 552.66,46.67 553.13,55.46 Z" id="Path"></path>
                <polygon id="Path" points="583.24 57.66 609.06 27.16 632.54 27.16 603.53 59.79 633.96 103.2 610.13 103.2 588.35 72.27 582.96 78.09 582.96 103.2 562.25 103.2 562.25 0.84 582.96 0.84 582.96 57.66"></polygon>
            </g>
        </g>
    </g>
</svg>