<svg width="35" height="35" viewBox="0 0 35 35" fill="none" xmlns="http://www.w3.org/2000/svg">
<path d="M17.5 9.91797C16.534 9.91797 15.75 10.702 15.75 11.668V12.8345H19.25V11.668C19.25 10.702 18.4663 9.91797 17.5 9.91797Z" fill="black"/>
<path d="M5.83203 5.83339V13.9989C5.83124 16.4864 6.32053 18.9497 7.27193 21.2481C8.22252 23.5452 9.6145 25.6335 11.369 27.3948C13.123 29.1522 15.2058 30.5471 17.4986 31.4999C19.7914 30.5471 21.8742 29.1522 23.6281 27.3948C25.3833 25.6338 26.7756 23.5454 27.7263 21.2481C28.677 18.9495 29.1659 16.4863 29.1651 13.9989V5.83339C21.3881 2.60709 13.0438 2.83949 5.83203 5.83339ZM23.332 20.4168C23.332 21.3793 22.5459 22.1668 21.582 22.1668H13.4155C12.4537 22.1668 11.6655 21.3793 11.6655 20.4168V14.5834C11.6655 13.6205 12.4537 12.8334 13.4155 12.8334H13.9986V11.6668C13.9986 9.73344 15.5662 8.16684 17.4986 8.16684C19.4309 8.16684 20.9986 9.73344 20.9986 11.6668V12.8334H21.582C22.5459 12.8334 23.332 13.6205 23.332 14.5834V20.4168Z" fill="black"/>
<path d="M16.332 15.75H18.6651V19.25H16.332V15.75Z" fill="black"/>
</svg>
