<svg width="25" height="29" viewBox="0 0 25 29" fill="none" xmlns="http://www.w3.org/2000/svg">
<path d="M0.832032 2.83339V10.9989C0.831243 13.4864 1.32053 15.9497 2.27193 18.2481C3.22252 20.5452 4.6145 22.6335 6.36903 24.3948C8.12298 26.1522 10.2058 27.5471 12.4986 28.4999C14.7914 27.5471 16.8742 26.1522 18.6281 24.3948C20.3833 22.6338 21.7756 20.5454 22.7263 18.2481C23.677 15.9495 24.1659 13.4863 24.1651 10.9989V2.83339C16.3881 -0.392912 8.04378 -0.160511 0.832032 2.83339ZM18.332 17.4168C18.332 18.3793 17.5459 19.1668 16.582 19.1668H8.41548C7.45368 19.1668 6.66548 18.3793 6.66548 17.4168V11.5834C6.66548 10.6205 7.45368 9.83339 8.41548 9.83339H8.99858V8.66684C8.99858 6.73344 10.5662 5.16684 12.4986 5.16684C14.4309 5.16684 15.9986 6.73344 15.9986 8.66684V9.83339H16.582C17.5459 9.83339 18.332 10.6205 18.332 11.5834V17.4168Z" fill="black"/>
</svg>
