<svg width="27" height="24" viewBox="0 0 27 24" fill="none" xmlns="http://www.w3.org/2000/svg">
<g clip-path="url(#clip0_1235_6928)">
<path d="M16.7213 15.2223L13.7977 12.2928V6.22656H11.6094V13.1762L15.161 16.7357L16.7213 15.2223Z" fill="black"/>
<path d="M3.52645 20.5318C4.78609 21.7737 6.30997 22.7241 7.98788 23.3144C9.66579 23.9046 11.4558 24.1198 13.2284 23.9445V19.5836C11.7023 19.8228 10.1384 19.6017 8.7419 18.9494C7.34541 18.2971 6.18148 17.244 5.40272 15.9282C4.62396 14.6124 4.26673 13.0953 4.37787 11.5758C4.48901 10.0564 5.06333 8.60551 6.02553 7.41345L7.72805 9.09288V2.62109H1.16305L2.92247 4.35445C0.937097 6.62994 -0.103677 9.56042 0.0083047 12.5598C0.120286 15.5592 1.37677 18.4063 3.52645 20.5318Z" fill="black"/>
</g>
<g clip-path="url(#clip1_1235_6928)">
<path d="M23.0485 3.46811C21.7892 2.22613 20.2655 1.27565 18.5877 0.685413C16.91 0.0951802 15.1201 -0.120041 13.3477 0.0553208V4.42054C14.8736 4.18162 16.4372 4.4028 17.8335 5.05509C19.2298 5.70738 20.3935 6.76033 21.1722 8.07592C21.9509 9.39151 22.3082 10.9083 22.1973 12.4276C22.0863 13.9468 21.5124 15.3976 20.5506 16.5896L18.848 14.907V21.3788H25.413L23.6525 19.6433C25.6377 17.3681 26.6784 14.438 26.5665 11.439C26.4545 8.43997 25.1981 5.59321 23.0485 3.46811Z" fill="black"/>
</g>
<defs>
<clipPath id="clip0_1235_6928">
<rect width="23.1427" height="22.2856" fill="white" transform="translate(0 1.71484)"/>
</clipPath>
<clipPath id="clip1_1235_6928">
<rect width="23.1427" height="22.2856" fill="white" transform="translate(3.42969)"/>
</clipPath>
</defs>
</svg>
