<svg width="34" height="25" viewBox="0 0 34 25" fill="none" xmlns="http://www.w3.org/2000/svg">
<path fill-rule="evenodd" clip-rule="evenodd" d="M8.31969 17.9179H5.82836V17.136C5.59037 17.4345 5.34984 17.6522 5.10679 17.7888C4.68144 18.0267 4.19786 18.1456 3.65604 18.1456C2.78002 18.1456 2.00023 17.8445 1.31663 17.2422C0.501372 16.5236 0.09375 15.5721 0.09375 14.3879C0.09375 13.1834 0.511499 12.2218 1.34701 11.5032C2.01035 10.9313 2.77243 10.6453 3.63326 10.6453C4.13456 10.6453 4.60548 10.7516 5.04602 10.9642C5.29921 11.0856 5.55998 11.2855 5.82836 11.5639V6.51562H8.31969V17.9179ZM5.90431 14.3955C5.90431 13.9501 5.74734 13.5718 5.43339 13.2606C5.11944 12.9493 4.73967 12.7937 4.29407 12.7937C3.79782 12.7937 3.3902 12.9809 3.07119 13.3555C2.81294 13.6591 2.68382 14.0058 2.68382 14.3955C2.68382 14.7852 2.81294 15.1318 3.07119 15.4355C3.38514 15.81 3.79276 15.9972 4.29407 15.9972C4.74474 15.9972 5.12577 15.8429 5.43719 15.5342C5.74861 15.2255 5.90431 14.8459 5.90431 14.3955ZM17.6635 17.9179H15.1722V17.136C14.9342 17.4345 14.6937 17.6522 14.4506 17.7888C14.0253 18.0267 13.5417 18.1456 12.9999 18.1456C12.1238 18.1456 11.3441 17.8445 10.6605 17.2422C9.8452 16.5236 9.43758 15.5721 9.43758 14.3879C9.43758 13.1834 9.85532 12.2218 10.6908 11.5032C11.3542 10.9313 12.1163 10.6453 12.9771 10.6453C13.4784 10.6453 13.9493 10.7516 14.3898 10.9642C14.643 11.0856 14.9038 11.2855 15.1722 11.5639V10.8731H17.6635V17.9179ZM15.2481 14.3955C15.2481 13.9501 15.0912 13.5718 14.7772 13.2606C14.4633 12.9493 14.0835 12.7937 13.6379 12.7937C13.1417 12.7937 12.734 12.9809 12.415 13.3555C12.1568 13.6591 12.0276 14.0058 12.0276 14.3955C12.0276 14.7852 12.1568 15.1318 12.415 15.4355C12.729 15.81 13.1366 15.9972 13.6379 15.9972C14.0886 15.9972 14.4696 15.8429 14.781 15.5342C15.0924 15.2255 15.2481 14.8459 15.2481 14.3955ZM27.2884 14.4031C27.2884 15.6076 26.8706 16.5691 26.0351 17.2878C25.3718 17.8597 24.6097 18.1456 23.7489 18.1456C23.2476 18.1456 22.7766 18.0393 22.3361 17.8268C22.0829 17.7053 21.8221 17.5054 21.5538 17.227V21.4403H19.0624V10.8731H21.5538V11.655C21.7766 11.3614 22.0171 11.1438 22.2753 11.0021C22.7007 10.7643 23.1843 10.6453 23.7261 10.6453C24.6021 10.6453 25.3819 10.9465 26.0655 11.5487C26.8808 12.2674 27.2884 13.2188 27.2884 14.4031ZM24.6983 14.3955C24.6983 13.9957 24.5717 13.649 24.3185 13.3555C23.9995 12.9809 23.5894 12.7937 23.0881 12.7937C22.6374 12.7937 22.2563 12.948 21.9449 13.2568C21.6335 13.5655 21.4778 13.945 21.4778 14.3955C21.4778 14.8408 21.6348 15.2191 21.9487 15.5304C22.2627 15.8416 22.6425 15.9972 23.0881 15.9972C23.5894 15.9972 23.997 15.81 24.3109 15.4355C24.5692 15.1318 24.6983 14.7852 24.6983 14.3955ZM33.6927 13.1733C33.3433 13.0062 32.9889 12.9227 32.6294 12.9227C31.809 12.9227 31.2774 13.2568 31.0343 13.9248C30.9432 14.1677 30.8976 14.4942 30.8976 14.9041V17.9179H28.4063V10.8731H30.8976V12.027C31.1609 11.617 31.4445 11.321 31.7483 11.1388C32.1584 10.8958 32.6446 10.7744 33.2066 10.7744C33.3383 10.7744 33.5003 10.782 33.6927 10.7972V13.1733Z" fill="#222020"/>
<path d="M19.0442 17.9688H21.5526L21.7686 23.855L20.2984 24.8847L18.8281 23.855L19.0442 17.9688Z" fill="#222020"/>
<path d="M22.7492 0.210938H13.6033C13.5009 0.210938 13.418 0.293848 13.418 0.396123V6.71965C13.418 6.82193 13.5009 6.90484 13.6033 6.90484H22.7492C22.8516 6.90484 22.9345 6.82193 22.9345 6.71965V0.396123C22.9345 0.293848 22.8516 0.210938 22.7492 0.210938Z" fill="#222020"/>
<path opacity="0.08" d="M16.9382 0.210938H13.418V6.90484H16.9382V0.210938Z" fill="white"/>
<path d="M25.4712 6.47266H10.7587C10.5684 6.47266 10.4141 6.62688 10.4141 6.81712V7.7348C10.4141 7.92504 10.5684 8.07926 10.7587 8.07926H25.4712C25.6615 8.07926 25.8158 7.92504 25.8158 7.7348V6.81712C25.8158 6.62688 25.6615 6.47266 25.4712 6.47266Z" fill="#222020"/>
<path opacity="0.08" d="M15.1794 6.47266H10.4141V8.45002H15.1794V6.47266Z" fill="white"/>
</svg>
