<svg width="27" height="27" viewBox="0 0 27 27" fill="none" xmlns="http://www.w3.org/2000/svg">
<path d="M20.4242 10.3158C20.9484 10.4432 21.4499 10.6507 21.9109 10.931L22.7824 10.0595C22.9875 9.85443 23.3156 9.85443 23.5207 10.0595V10.0646L24.5768 11.1156C24.7819 11.3207 24.7819 11.6539 24.5768 11.859L23.7052 12.7305C23.9855 13.1915 24.193 13.693 24.3205 14.2173H25.5509C25.8431 14.2173 26.0789 14.4531 26.0789 14.7402V16.2269C26.0796 16.2965 26.0664 16.3654 26.0401 16.4298C26.0138 16.4942 25.975 16.5527 25.9258 16.6018C25.8766 16.651 25.8181 16.6899 25.7537 16.7162C25.6894 16.7425 25.6204 16.7557 25.5509 16.755H24.3205C24.1931 17.2792 23.9856 17.7807 23.7052 18.2417L24.5768 19.1133C24.5768 19.1133 24.7767 19.6567 24.5768 19.8566L23.5207 20.9076C23.4227 21.0053 23.2899 21.0601 23.1516 21.0601C23.0132 21.0601 22.8805 21.0053 22.7824 20.9076L21.9109 20.0361C21.4499 20.3163 20.9484 20.5238 20.4242 20.6513V21.8817C20.4248 21.9508 20.4118 22.0193 20.3858 22.0834C20.3599 22.1474 20.3215 22.2057 20.2728 22.2548C20.2242 22.3039 20.1663 22.3428 20.1025 22.3694C20.0388 22.396 19.9703 22.4097 19.9012 22.4097H18.4042C18.2656 22.4097 18.1325 22.3546 18.0345 22.2566C17.9364 22.1585 17.8813 22.0255 17.8813 21.8868V20.6564C17.357 20.5291 16.8555 20.3216 16.3946 20.0412L15.523 20.9127C15.4744 20.9619 15.4165 21.0009 15.3527 21.0275C15.2889 21.0541 15.2205 21.0678 15.1513 21.0678C15.0822 21.0678 15.0138 21.0541 14.95 21.0275C14.8862 21.0009 14.8283 20.9619 14.7797 20.9127L13.7236 19.8566C13.6744 19.808 13.6354 19.7501 13.6088 19.6863C13.5822 19.6225 13.5685 19.5541 13.5685 19.4849C13.5685 19.4158 13.5822 19.3474 13.6088 19.2836C13.6354 19.2198 13.6744 19.1619 13.7236 19.1133L14.5951 18.2417C14.3149 17.7807 14.1073 17.2792 13.9799 16.755H12.7495C12.6108 16.755 12.4778 16.6999 12.3797 16.6018C12.2817 16.5037 12.2266 16.3707 12.2266 16.232V14.7453C12.2266 14.4531 12.4573 14.2173 12.7495 14.2173H13.9799C14.1072 13.693 14.3147 13.1915 14.5951 12.7305L13.7236 11.859C13.6744 11.8103 13.6354 11.7525 13.6088 11.6887C13.5822 11.6249 13.5685 11.5564 13.5685 11.4873C13.5685 11.4182 13.5822 11.3497 13.6088 11.2859C13.6354 11.2221 13.6744 11.1642 13.7236 11.1156L14.7797 10.0646C14.7745 10.0595 15.3231 9.86468 15.523 10.0646L16.3946 10.9362C16.8556 10.6559 17.3571 10.4484 17.8813 10.321V9.09055C17.8813 8.79833 18.112 8.5625 18.4042 8.5625H19.891C20.1832 8.5625 20.419 8.79833 20.419 9.08542V10.3158H20.4242ZM20.7882 11.536C20.4916 11.4125 20.1821 11.323 19.8654 11.2694C19.7321 11.2615 19.6068 11.203 19.5153 11.1058C19.4238 11.0085 19.373 10.88 19.3732 10.7465V9.61347H18.9323V10.7413C18.9323 10.9977 18.7477 11.2233 18.4914 11.2643C17.8353 11.3645 17.2119 11.6174 16.6714 12.0025C16.5711 12.0907 16.4409 12.1372 16.3074 12.1324C16.174 12.1276 16.0474 12.072 15.9537 11.9769L15.1539 11.1771L14.8463 11.4847L15.6358 12.2845C15.7277 12.372 15.7846 12.49 15.7959 12.6164C15.8072 12.7428 15.7722 12.869 15.6973 12.9715C15.3064 13.5057 15.0449 14.1235 14.9335 14.7761C14.9244 14.9084 14.8653 15.0324 14.7682 15.1228C14.6711 15.2133 14.5432 15.2634 14.4105 15.2631H13.2827V15.7091H14.4105C14.6669 15.7091 14.8873 15.8886 14.9283 16.15L14.4157 16.232L14.9283 16.15C15.0293 16.8043 15.2822 17.4259 15.6666 17.9649C15.7554 18.0645 15.8028 18.1944 15.799 18.3278C15.7952 18.4613 15.7405 18.5882 15.6461 18.6826L14.8412 19.4824L15.1539 19.7951L15.9485 19.0005C16.0368 18.9094 16.1551 18.8534 16.2814 18.8431C16.4078 18.8327 16.5336 18.8686 16.6355 18.9441C17.1713 19.3357 17.7909 19.5972 18.4453 19.708C18.5776 19.7171 18.7016 19.7761 18.792 19.8732C18.8825 19.9703 18.9326 20.0982 18.9323 20.2309V21.3587H19.3732V20.2309C19.3732 19.9745 19.5577 19.749 19.8192 19.7131L19.9217 19.708C20.2248 19.6669 20.5191 19.5769 20.7933 19.4414C21.0904 19.3163 21.3725 19.1581 21.6341 18.9697C21.7337 18.8809 21.8636 18.8335 21.997 18.8373C22.1305 18.8411 22.2574 18.8958 22.3518 18.9902L23.1516 19.79L23.4643 19.4824L22.6697 18.6826C22.5791 18.5953 22.5231 18.4784 22.5118 18.3532C22.5005 18.2279 22.5347 18.1028 22.6081 18.0008C23.0016 17.4655 23.2649 16.8458 23.3771 16.191C23.3862 16.0595 23.4445 15.9363 23.5406 15.846C23.6366 15.7557 23.7631 15.705 23.8949 15.704H25.0279V15.258H23.9001C23.7745 15.2595 23.6525 15.2158 23.5565 15.1349C23.4605 15.0539 23.3968 14.9411 23.3771 14.8171L23.8949 14.735L23.3823 14.8171C23.2797 14.1623 23.0251 13.5408 22.6389 13.0022C22.5507 12.9019 22.5042 12.7717 22.509 12.6383C22.5138 12.5048 22.5694 12.3782 22.6645 12.2845L23.4643 11.4847L23.1516 11.172L22.3569 11.9666C22.2687 12.0577 22.1504 12.1137 22.024 12.124C21.8977 12.1344 21.7718 12.0985 21.6699 12.023C21.3965 11.8247 21.1005 11.6595 20.7882 11.5309V11.536Z" fill="#212121"/>
<path d="M19.1515 12.5782C19.5336 12.5768 19.9122 12.6511 20.2655 12.7967C20.6188 12.9423 20.9397 13.1564 21.2099 13.4266C21.4801 13.6968 21.6942 14.0178 21.8398 14.371C21.9854 14.7243 22.0597 15.1029 22.0583 15.485C22.0624 16.0618 21.8942 16.6267 21.5752 17.1073C21.2563 17.5879 20.8011 17.9624 20.268 18.1827C19.7349 18.4029 19.1482 18.459 18.583 18.3438C18.0178 18.2285 17.4999 17.9472 17.0957 17.5357C16.6857 17.1309 16.4058 16.6129 16.2917 16.0481C16.1776 15.4834 16.2346 14.8974 16.4553 14.3652C16.676 13.8329 17.0505 13.3786 17.5307 13.0603C18.011 12.742 18.5753 12.5741 19.1515 12.5782ZM20.4331 14.2034C20.181 13.9469 19.858 13.7716 19.5056 13.7C19.1531 13.6284 18.7873 13.6637 18.4551 13.8015C18.1229 13.9392 17.8394 14.1731 17.641 14.473C17.4427 14.773 17.3384 15.1254 17.3417 15.485C17.3384 15.8447 17.4427 16.1971 17.641 16.497C17.8394 16.797 18.1229 17.0309 18.4551 17.1686C18.7873 17.3063 19.1531 17.3417 19.5056 17.2701C19.858 17.1985 20.181 17.0232 20.4331 16.7667C20.6024 16.5989 20.7368 16.3993 20.8285 16.1793C20.9201 15.9593 20.9674 15.7234 20.9674 15.485C20.9674 15.2467 20.9201 15.0107 20.8285 14.7908C20.7368 14.5708 20.6024 14.3711 20.4331 14.2034Z" fill="#212121"/>
<path d="M1.82423 0.92189H18.7629C18.8815 0.92121 18.9992 0.944084 19.109 0.989188C19.2187 1.03429 19.3185 1.10073 19.4024 1.18465C19.4863 1.26857 19.5528 1.36831 19.5979 1.47809C19.643 1.58787 19.6658 1.70551 19.6652 1.82419V8.03775H18.6142V1.96774H1.96778V25.0276H18.6193V22.9308H19.6703V25.1763C19.671 25.295 19.6481 25.4126 19.603 25.5224C19.5579 25.6322 19.4914 25.7319 19.4075 25.8159C19.3236 25.8998 19.2239 25.9662 19.1141 26.0113C19.0043 26.0564 18.8867 26.0793 18.768 26.0786H1.82423C1.70512 26.0793 1.58705 26.0563 1.47694 26.0108C1.36682 25.9654 1.26685 25.8985 1.18286 25.8141C1.09887 25.7296 1.03254 25.6292 0.987738 25.5189C0.94294 25.4085 0.92057 25.2903 0.921934 25.1712V1.82419C0.921254 1.70551 0.944128 1.58787 0.989232 1.47809C1.03434 1.36831 1.10077 1.26857 1.1847 1.18465C1.26862 1.10073 1.36836 1.03429 1.47814 0.989188C1.58791 0.944084 1.70555 0.92121 1.82423 0.92189Z" fill="#212121"/>
<path d="M3.52734 6.66406H15.5751V7.75605H3.52734V6.66406Z" fill="#212121"/>
<path d="M3.52466 11.4023H13.0552C13.0433 11.554 13.0647 11.7064 13.1179 11.849C13.171 11.9916 13.2546 12.1208 13.3628 12.2277L13.5832 12.4533H3.52466V11.4023ZM3.52466 20.8355H13.9729L14.4138 21.2815C14.5637 21.4301 14.7549 21.5301 14.9625 21.5685C15.17 21.607 15.3844 21.582 15.5775 21.4968V21.8864H3.52466V20.8355ZM3.52466 16.1189H11.7017V16.2317C11.7017 16.6418 11.9376 17.0007 12.2862 17.1699H3.51953V16.1189H3.52466Z" fill="#212121"/>
</svg>
