<svg width="34" height="7" viewBox="0 0 34 7" fill="none" xmlns="http://www.w3.org/2000/svg">
<path fill-rule="evenodd" clip-rule="evenodd" d="M22.602 0.00271265H28.5241V1.11897H26.1747V6.99186H25V1.11897H22.602V0.00271265ZM33.4555 4.80546C33.4429 4.68204 33.3871 4.58506 33.2901 4.51589C33.1918 4.44604 33.0657 4.41145 32.9103 4.41145C32.8014 4.41145 32.7077 4.42841 32.6294 4.46164C32.5517 4.49487 32.4912 4.53962 32.4494 4.59659C32.4082 4.65356 32.3877 4.71866 32.3857 4.79122C32.3857 4.85226 32.4003 4.90515 32.4282 4.94923C32.4561 4.99399 32.4932 5.03197 32.5417 5.06249C32.5895 5.09368 32.6427 5.11878 32.7011 5.1398C32.7602 5.16082 32.8186 5.17845 32.8777 5.1927L33.1493 5.26051C33.2582 5.28628 33.3638 5.32087 33.4654 5.36495C33.5664 5.40835 33.658 5.46328 33.7384 5.52974C33.8187 5.5962 33.8825 5.67623 33.9289 5.76981C33.9761 5.86408 34 5.97394 34 6.10008C34 6.27097 33.9568 6.42085 33.8705 6.55038C33.7835 6.67923 33.6587 6.78028 33.4946 6.85284C33.3313 6.9254 33.1341 6.96202 32.9016 6.96202C32.6772 6.96202 32.4813 6.92676 32.3166 6.85623C32.1512 6.78638 32.0218 6.68398 31.9288 6.5497C31.8358 6.41475 31.786 6.25063 31.7787 6.05735H32.294C32.3013 6.1584 32.3332 6.24249 32.3877 6.31099C32.4421 6.37812 32.5138 6.42763 32.6015 6.46154C32.6898 6.49409 32.7887 6.51104 32.8977 6.51104C33.0112 6.51104 33.1115 6.49341 33.1985 6.45883C33.2841 6.42424 33.3519 6.37677 33.4004 6.3137C33.4502 6.25266 33.4747 6.17942 33.4754 6.09601C33.4747 6.02005 33.4521 5.95698 33.4096 5.9068C33.3658 5.8573 33.3054 5.81593 33.2277 5.78202C33.15 5.74879 33.059 5.71827 32.9554 5.69182L32.6261 5.60705C32.3883 5.54534 32.1997 5.45108 32.0616 5.32562C31.9235 5.19948 31.8551 5.03333 31.8551 4.82445C31.8551 4.65288 31.9009 4.50233 31.9945 4.37347C32.0868 4.24462 32.213 4.14426 32.373 4.07305C32.5337 4.00116 32.715 3.9659 32.9176 3.9659C33.1228 3.9659 33.3027 4.00116 33.4581 4.07305C33.6129 4.14426 33.735 4.24327 33.8234 4.37008C33.9117 4.4969 33.9575 4.64135 33.9602 4.80546H33.4555ZM30.7932 4.00523H31.3139V6.05261C31.3132 6.24114 31.2734 6.40186 31.195 6.53749C31.1166 6.67313 31.0071 6.77621 30.8676 6.84877C30.7282 6.92133 30.5648 6.95795 30.3795 6.95795C30.2102 6.95795 30.0581 6.92676 29.9227 6.86572C29.7872 6.80469 29.6796 6.71382 29.6012 6.59378C29.5216 6.47307 29.4824 6.32387 29.4824 6.14416H30.0037C30.0043 6.22283 30.0223 6.29064 30.0555 6.34761C30.0887 6.40457 30.1352 6.44798 30.1936 6.47849C30.2534 6.50901 30.3224 6.52393 30.3995 6.52393C30.4831 6.52393 30.5542 6.5063 30.6126 6.47036C30.6704 6.43509 30.7155 6.38219 30.7461 6.31166C30.7766 6.24181 30.7926 6.15569 30.7932 6.05261V4.00523ZM28.7884 6.94914C28.7021 6.94914 28.6291 6.91862 28.568 6.85759C28.5069 6.79723 28.4763 6.72331 28.477 6.63583C28.4763 6.55106 28.5069 6.47849 28.568 6.41746C28.6291 6.35642 28.7021 6.32591 28.7884 6.32591C28.8714 6.32591 28.9438 6.35642 29.0049 6.41746C29.0667 6.47849 29.0979 6.55106 29.0986 6.63583C29.0979 6.69347 29.0839 6.74637 29.0547 6.79384C29.0255 6.84199 28.9883 6.87929 28.9412 6.90709C28.8947 6.9349 28.8442 6.94914 28.7884 6.94914ZM6.94078 6.93964L1.46824 0H0V6.98915H1.17473V1.49399L5.50574 6.99186H12.8622V5.87561H8.11484V4.031H11.9325V2.91475H8.11484V1.11897H12.8622V0.00271265H6.94012V1.11897H6.94078V6.93964ZM17.3971 4.99806L16.6268 4.02015L14.278 7H15.8193L17.3971 4.99806ZM15.8193 0.00610347H14.282L19.7884 6.99458H21.3297L18.5765 3.50271L21.3257 0.0108506L19.7884 0.0135633L17.8068 2.52684L15.8193 0.00610347Z" fill="#404040"/>
</svg>
