<svg width="31" height="35" viewBox="0 0 31 35" fill="none" xmlns="http://www.w3.org/2000/svg">
<path d="M31 17.5043C31 15.4695 28.4283 13.5411 24.4853 12.3453C25.3952 8.36338 24.9908 5.19536 23.2089 4.18109C22.7982 3.94318 22.318 3.83048 21.7935 3.83048V5.22666C22.0842 5.22666 22.318 5.28301 22.5139 5.38944C23.3732 5.8778 23.746 7.73728 23.4554 10.1289C23.3859 10.7175 23.2721 11.3373 23.1331 11.9697C21.8946 11.6691 20.5424 11.4375 19.1207 11.2872C18.2676 10.1289 17.383 9.07712 16.4921 8.15676C18.552 6.25971 20.4855 5.2204 21.7998 5.2204V3.82422C20.0622 3.82422 17.7874 5.05136 15.4874 7.18006C13.1873 5.06388 10.9126 3.84926 9.17489 3.84926V5.24544C10.4829 5.24544 12.4227 6.27849 14.4827 8.16303C13.598 9.08338 12.7134 10.1289 11.873 11.2872C10.445 11.4375 9.09274 11.6691 7.85426 11.9759C7.70893 11.3498 7.60151 10.7425 7.52568 10.1603C7.2287 7.76859 7.59519 5.9091 8.44823 5.41449C8.63779 5.30179 8.88422 5.25171 9.17489 5.25171V3.85552C8.64411 3.85552 8.16388 3.96822 7.74684 4.20613C5.97126 5.2204 5.57318 8.38216 6.4894 12.3516C2.55911 13.5537 0 15.4758 0 17.5043C0 19.5391 2.57175 21.4674 6.51468 22.6633C5.60477 26.6452 6.00917 29.8132 7.79107 30.8275C8.20179 31.0654 8.68202 31.1781 9.2128 31.1781C10.9505 31.1781 13.2252 29.951 15.5253 27.8223C17.8253 29.9385 20.1001 31.1531 21.8377 31.1531C22.3685 31.1531 22.8488 31.0404 23.2658 30.8025C25.0414 29.7882 25.4395 26.6264 24.5232 22.657C28.4409 21.4612 31 19.5328 31 17.5043ZM22.7729 13.3283C22.5391 14.1359 22.2485 14.9686 21.9199 15.8013C21.6608 15.3005 21.3891 14.7996 21.0921 14.2987C20.8015 13.7978 20.4918 13.3095 20.1822 12.8337C21.0795 12.9651 21.9452 13.1279 22.7729 13.3283ZM19.8789 19.9961C19.3861 20.8414 18.8806 21.6428 18.3561 22.3878C17.4146 22.4692 16.4605 22.513 15.5 22.513C14.5459 22.513 13.5917 22.4692 12.6565 22.3941C12.1321 21.649 11.6203 20.8539 11.1274 20.0149C10.6472 19.1947 10.2112 18.362 9.81309 17.5231C10.2049 16.6841 10.6472 15.8452 11.1211 15.025C11.6139 14.1798 12.1194 13.3784 12.6439 12.6333C13.5854 12.5519 14.5395 12.5081 15.5 12.5081C16.4541 12.5081 17.4083 12.5519 18.3435 12.6271C18.8679 13.3721 19.3797 14.1672 19.8726 15.0062C20.3528 15.8264 20.7888 16.6591 21.1869 17.498C20.7888 18.337 20.3528 19.176 19.8789 19.9961ZM21.9199 19.1822C22.2611 20.0212 22.5518 20.8601 22.7919 21.6741C21.9641 21.8744 21.0921 22.0435 20.1885 22.1749C20.4982 21.6928 20.8078 21.1982 21.0985 20.6911C21.3891 20.1902 21.6608 19.6831 21.9199 19.1822ZM15.5126 25.8626C14.925 25.2616 14.3373 24.5916 13.756 23.8591C14.3247 23.8842 14.906 23.9029 15.4937 23.9029C16.0876 23.9029 16.6753 23.8904 17.2503 23.8591C16.6816 24.5916 16.094 25.2616 15.5126 25.8626ZM10.8115 22.1749C9.91419 22.0435 9.04851 21.8807 8.22075 21.6803C8.45455 20.8727 8.74521 20.04 9.07379 19.2073C9.33286 19.7081 9.60457 20.209 9.90155 20.7099C10.1985 21.2108 10.5018 21.6991 10.8115 22.1749ZM15.481 9.14599C16.0687 9.74703 16.6563 10.417 17.2377 11.1495C16.669 11.1244 16.0876 11.1057 15.5 11.1057C14.906 11.1057 14.3184 11.1182 13.7434 11.1495C14.3121 10.417 14.8997 9.74703 15.481 9.14599ZM10.8051 12.8337C10.4955 13.3158 10.1859 13.8104 9.89523 14.3175C9.60457 14.8184 9.33286 15.3192 9.07379 15.8201C8.73257 14.9812 8.44191 14.1422 8.20179 13.3283C9.02956 13.1342 9.90155 12.9651 10.8051 12.8337ZM5.08663 20.6723C2.84978 19.7269 1.40277 18.4873 1.40277 17.5043C1.40277 16.5213 2.84978 15.2754 5.08663 14.3363C5.63005 14.1046 6.22401 13.898 6.83693 13.7039C7.19711 14.9311 7.67102 16.2083 8.25866 17.5168C7.67733 18.8191 7.20974 20.09 6.85589 21.3109C6.23033 21.1168 5.63636 20.904 5.08663 20.6723ZM8.48614 29.6191C7.62678 29.1308 7.25398 27.2713 7.54464 24.8796C7.61415 24.2911 7.72789 23.6713 7.8669 23.0389C9.10538 23.3395 10.4576 23.5711 11.8793 23.7214C12.7324 24.8796 13.617 25.9315 14.5079 26.8518C12.448 28.7489 10.5145 29.7882 9.20016 29.7882C8.91582 29.7819 8.6757 29.7256 8.48614 29.6191ZM23.4743 24.8483C23.7713 27.24 23.4048 29.0995 22.5518 29.5941C22.3622 29.7068 22.1158 29.7569 21.8251 29.7569C20.5171 29.7569 18.5773 28.7238 16.5173 26.8393C17.402 25.919 18.2866 24.8734 19.127 23.7151C20.555 23.5649 21.9073 23.3332 23.1457 23.0264C23.2911 23.6588 23.4048 24.2661 23.4743 24.8483ZM25.9071 20.6723C25.3636 20.904 24.7697 21.1106 24.1567 21.3047C23.7966 20.0775 23.3227 18.8003 22.735 17.4918C23.3163 16.1895 23.7839 14.9185 24.1378 13.6977C24.7634 13.8918 25.3573 14.1046 25.9134 14.3363C28.1502 15.2817 29.5972 16.5213 29.5972 17.5043C29.5909 18.4873 28.1439 19.7332 25.9071 20.6723Z" fill="#222020"/>
<path d="M15.4932 20.367C17.088 20.367 18.3808 19.086 18.3808 17.5058C18.3808 15.9255 17.088 14.6445 15.4932 14.6445C13.8983 14.6445 12.6055 15.9255 12.6055 17.5058C12.6055 19.086 13.8983 20.367 15.4932 20.367Z" fill="#222020"/>
</svg>
