<svg width="31" height="29" viewBox="0 0 31 29" fill="none" xmlns="http://www.w3.org/2000/svg">
<path d="M31 14.5043C31 12.4695 28.4283 10.5411 24.4853 9.34531C25.3952 5.36338 24.9908 2.19536 23.2089 1.18109C22.7982 0.943176 22.318 0.83048 21.7935 0.83048V2.22666C22.0842 2.22666 22.318 2.28301 22.5139 2.38944C23.3732 2.8778 23.746 4.73728 23.4554 7.12895C23.3859 7.71747 23.2721 8.3373 23.1331 8.96966C21.8946 8.66913 20.5424 8.43748 19.1207 8.28722C18.2676 7.12895 17.383 6.07712 16.4921 5.15676C18.552 3.25971 20.4855 2.2204 21.7998 2.2204V0.824219C20.0622 0.824219 17.7874 2.05136 15.4874 4.18006C13.1873 2.06388 10.9126 0.849262 9.17489 0.849262V2.24544C10.4829 2.24544 12.4227 3.27849 14.4827 5.16303C13.598 6.08338 12.7134 7.12895 11.873 8.28722C10.445 8.43748 9.09274 8.66913 7.85426 8.97592C7.70893 8.34983 7.60151 7.74252 7.52568 7.16025C7.2287 4.76859 7.59519 2.9091 8.44823 2.41449C8.63779 2.30179 8.88422 2.25171 9.17489 2.25171V0.855523C8.64411 0.855523 8.16388 0.968219 7.74684 1.20613C5.97126 2.2204 5.57318 5.38216 6.4894 9.35157C2.55911 10.5537 0 12.4758 0 14.5043C0 16.5391 2.57175 18.4674 6.51468 19.6633C5.60477 23.6452 6.00917 26.8132 7.79107 27.8275C8.20179 28.0654 8.68202 28.1781 9.2128 28.1781C10.9505 28.1781 13.2252 26.951 15.5253 24.8223C17.8253 26.9385 20.1001 28.1531 21.8377 28.1531C22.3685 28.1531 22.8488 28.0404 23.2658 27.8025C25.0414 26.7882 25.4395 23.6264 24.5232 19.657C28.4409 18.4612 31 16.5328 31 14.5043ZM22.7729 10.3283C22.5391 11.1359 22.2485 11.9686 21.9199 12.8013C21.6608 12.3005 21.3891 11.7996 21.0921 11.2987C20.8015 10.7978 20.4918 10.3095 20.1822 9.83366C21.0795 9.96514 21.9452 10.1279 22.7729 10.3283ZM19.8789 16.9961C19.3861 17.8414 18.8806 18.6428 18.3561 19.3878C17.4146 19.4692 16.4605 19.513 15.5 19.513C14.5459 19.513 13.5917 19.4692 12.6565 19.3941C12.1321 18.649 11.6203 17.8539 11.1274 17.0149C10.6472 16.1947 10.2112 15.362 9.81309 14.5231C10.2049 13.6841 10.6472 12.8452 11.1211 12.025C11.6139 11.1798 12.1194 10.3784 12.6439 9.63331C13.5854 9.55192 14.5395 9.50809 15.5 9.50809C16.4541 9.50809 17.4083 9.55192 18.3435 9.62705C18.8679 10.3721 19.3797 11.1672 19.8726 12.0062C20.3528 12.8264 20.7888 13.6591 21.1869 14.498C20.7888 15.337 20.3528 16.176 19.8789 16.9961ZM21.9199 16.1822C22.2611 17.0212 22.5518 17.8601 22.7919 18.6741C21.9641 18.8744 21.0921 19.0435 20.1885 19.1749C20.4982 18.6928 20.8078 18.1982 21.0985 17.6911C21.3891 17.1902 21.6608 16.6831 21.9199 16.1822ZM15.5126 22.8626C14.925 22.2616 14.3373 21.5916 13.756 20.8591C14.3247 20.8842 14.906 20.9029 15.4937 20.9029C16.0876 20.9029 16.6753 20.8904 17.2503 20.8591C16.6816 21.5916 16.094 22.2616 15.5126 22.8626ZM10.8115 19.1749C9.91419 19.0435 9.04851 18.8807 8.22075 18.6803C8.45455 17.8727 8.74521 17.04 9.07379 16.2073C9.33286 16.7081 9.60457 17.209 9.90155 17.7099C10.1985 18.2108 10.5018 18.6991 10.8115 19.1749ZM15.481 6.14599C16.0687 6.74703 16.6563 7.41695 17.2377 8.14948C16.669 8.12443 16.0876 8.10565 15.5 8.10565C14.906 8.10565 14.3184 8.11817 13.7434 8.14948C14.3121 7.41695 14.8997 6.74703 15.481 6.14599ZM10.8051 9.83366C10.4955 10.3158 10.1859 10.8104 9.89523 11.3175C9.60457 11.8184 9.33286 12.3192 9.07379 12.8201C8.73257 11.9812 8.44191 11.1422 8.20179 10.3283C9.02956 10.1342 9.90155 9.96514 10.8051 9.83366ZM5.08663 17.6723C2.84978 16.7269 1.40277 15.4873 1.40277 14.5043C1.40277 13.5213 2.84978 12.2754 5.08663 11.3363C5.63005 11.1046 6.22401 10.898 6.83693 10.7039C7.19711 11.9311 7.67102 13.2083 8.25866 14.5168C7.67733 15.8191 7.20974 17.09 6.85589 18.3109C6.23033 18.1168 5.63636 17.904 5.08663 17.6723ZM8.48614 26.6191C7.62678 26.1308 7.25398 24.2713 7.54464 21.8796C7.61415 21.2911 7.72789 20.6713 7.8669 20.0389C9.10538 20.3395 10.4576 20.5711 11.8793 20.7214C12.7324 21.8796 13.617 22.9315 14.5079 23.8518C12.448 25.7489 10.5145 26.7882 9.20016 26.7882C8.91582 26.7819 8.6757 26.7256 8.48614 26.6191ZM23.4743 21.8483C23.7713 24.24 23.4048 26.0995 22.5518 26.5941C22.3622 26.7068 22.1158 26.7569 21.8251 26.7569C20.5171 26.7569 18.5773 25.7238 16.5173 23.8393C17.402 22.919 18.2866 21.8734 19.127 20.7151C20.555 20.5649 21.9073 20.3332 23.1457 20.0264C23.2911 20.6588 23.4048 21.2661 23.4743 21.8483ZM25.9071 17.6723C25.3636 17.904 24.7697 18.1106 24.1567 18.3047C23.7966 17.0775 23.3227 15.8003 22.735 14.4918C23.3163 13.1895 23.7839 11.9185 24.1378 10.6977C24.7634 10.8918 25.3573 11.1046 25.9134 11.3363C28.1502 12.2817 29.5972 13.5213 29.5972 14.5043C29.5909 15.4873 28.1439 16.7332 25.9071 17.6723Z" fill="#222020"/>
</svg>
