<svg width="29" height="23" viewBox="0 0 29 23" fill="none" xmlns="http://www.w3.org/2000/svg">
<path d="M18.1257 22.3761H8.459C6.40356 22.3677 4.4215 21.6112 2.88326 20.2478C1.34502 18.8845 0.355855 17.0076 0.100633 14.9681C-0.154588 12.9285 0.3416 10.8658 1.49646 9.1655C2.65133 7.46515 4.38584 6.24351 6.37583 5.72889C6.86193 4.17278 7.85831 2.82592 9.20409 1.90578C10.5499 0.985645 12.1665 0.545945 13.7929 0.65768C15.4194 0.769414 16.9607 1.42606 18.168 2.52159C19.3753 3.61712 20.1781 5.08759 20.4469 6.69556C21.7182 6.57804 22.999 6.77388 24.1772 7.26596C25.3554 7.75803 26.395 8.53134 27.2051 9.51823L25.3418 11.0576C24.6676 10.2392 23.7683 9.63621 22.7552 9.32312C21.742 9.01003 20.6594 9.00056 19.6409 9.29589L18.023 9.7611L18.1257 7.85073C18.1092 6.65606 17.6508 5.50982 16.839 4.6332C16.0272 3.75659 14.9195 3.21173 13.7296 3.10376C12.5397 2.99579 11.3519 3.33237 10.3956 4.04855C9.43925 4.76472 8.78205 5.80974 8.55083 6.98194L8.39254 7.82777L7.5467 7.95585C6.05454 8.2002 4.70824 8.99518 3.77366 10.1838C2.83908 11.3724 2.38416 12.8683 2.49875 14.376C2.61334 15.8837 3.28909 17.2936 4.39258 18.3273C5.49606 19.361 6.94704 19.9434 8.459 19.9594H18.1257V22.3761Z" fill="black"/>
<path d="M22.957 12.7109H25.3737V22.3776H22.957V12.7109Z" fill="black"/>
<path d="M19.332 16.3359H28.9987V18.7526H19.332V16.3359Z" fill="black"/>
</svg>
