<svg width="16" height="14" viewBox="0 0 16 14" fill="none" xmlns="http://www.w3.org/2000/svg">
<path d="M15.4336 8.05859L9.80859 13.6836C9.57422 13.8945 9.30469 14 9 14C8.69531 14 8.42578 13.8945 8.19141 13.6836C7.98047 13.4492 7.875 13.1797 7.875 12.875C7.875 12.5703 7.98047 12.3008 8.19141 12.0664L11.918 8.375L1.125 8.375C0.796875 8.375 0.527344 8.26953 0.316406 8.05859C0.105469 7.84766 0 7.57812 0 7.25C0 6.92188 0.105469 6.65234 0.316406 6.44141C0.527344 6.23047 0.796875 6.125 1.125 6.125L11.918 6.125L8.19141 2.43359C7.98047 2.19922 7.875 1.92969 7.875 1.625C7.875 1.32031 7.98047 1.05078 8.19141 0.816406C8.42578 0.605469 8.69531 0.5 9 0.5C9.30469 0.5 9.57422 0.605469 9.80859 0.816406L15.4336 6.44141C15.6445 6.67578 15.75 6.94531 15.75 7.25C15.75 7.55469 15.6445 7.82422 15.4336 8.05859Z" fill="#404040"/>
</svg>
