<svg width="16" height="14" viewBox="0 0 16 14" fill="none" xmlns="http://www.w3.org/2000/svg">
<path d="M0.566407 5.9414L6.19141 0.316405C6.42578 0.105468 6.69531 -8.13442e-07 7 -7.86805e-07C7.30469 -7.60168e-07 7.57422 0.105468 7.8086 0.316406C8.01953 0.550781 8.125 0.820312 8.125 1.125C8.125 1.42969 8.01953 1.69922 7.80859 1.93359L4.08203 5.625L14.875 5.625C15.2031 5.625 15.4727 5.73047 15.6836 5.94141C15.8945 6.15234 16 6.42188 16 6.75C16 7.07812 15.8945 7.34766 15.6836 7.55859C15.4727 7.76953 15.2031 7.875 14.875 7.875L4.08203 7.875L7.80859 11.5664C8.01953 11.8008 8.125 12.0703 8.125 12.375C8.125 12.6797 8.01953 12.9492 7.80859 13.1836C7.57422 13.3945 7.30469 13.5 7 13.5C6.69531 13.5 6.42578 13.3945 6.19141 13.1836L0.566407 7.55859C0.35547 7.32422 0.250001 7.05469 0.250001 6.75C0.250001 6.44531 0.35547 6.17578 0.566407 5.9414Z" fill="#404040"/>
</svg>
