<svg width="95" height="35" viewBox="0 0 95 35" fill="none" xmlns="http://www.w3.org/2000/svg">
<rect width="34.762" height="34.762" rx="5" fill="#3BB6D7"/>
<path d="M16.9767 27.4863L26.0781 22.2316V11.7222L16.9767 6.46747L7.87528 11.7222V22.2316L16.9767 27.4863Z" fill="white"/>
<path d="M44.5024 26.2228H51.5474C53.3871 26.2228 54.9554 25.8623 56.2525 25.1415C57.5496 24.4206 58.5415 23.3771 59.2282 22.0108C59.9234 20.6445 60.271 18.9975 60.271 17.0696V17.0445C60.271 15.1334 59.9234 13.5115 59.2282 12.1787C58.5415 10.846 57.5454 9.83178 56.2398 9.13608C54.9427 8.43199 53.3786 8.07995 51.5474 8.07995H44.5024V26.2228ZM48.3428 23.0921V11.2106H51.0642C52.1832 11.2106 53.137 11.4369 53.9254 11.8896C54.7138 12.3422 55.3157 13.0044 55.7311 13.8761C56.1466 14.7478 56.3543 15.8123 56.3543 17.0696V17.0948C56.3543 18.4024 56.1508 19.5004 55.7439 20.3889C55.3369 21.2774 54.7393 21.9521 53.9508 22.4131C53.1709 22.8658 52.2087 23.0921 51.0642 23.0921H48.3428Z" fill="#D9D7D7"/>
<path d="M69.643 26.5622C71.186 26.5622 72.5085 26.3317 73.6106 25.8707C74.7127 25.4013 75.5562 24.7391 76.1412 23.8842C76.7346 23.0208 77.0314 22.0066 77.0314 20.8415V20.829C77.0314 19.404 76.5863 18.285 75.6961 17.472C74.806 16.6505 73.3944 16.0512 71.4615 15.674L69.5286 15.2843C68.4689 15.0663 67.6932 14.7813 67.2015 14.4293C66.7098 14.0773 66.4639 13.6121 66.4639 13.0337V13.0211C66.4639 12.5853 66.5911 12.2039 66.8454 11.877C67.1082 11.5501 67.4728 11.2944 67.939 11.11C68.4138 10.9173 68.9733 10.8209 69.6176 10.8209C70.2619 10.8209 70.8257 10.9131 71.3089 11.0975C71.8006 11.2819 72.1948 11.5417 72.4915 11.877C72.7883 12.2123 72.9705 12.6188 73.0384 13.0966L73.0511 13.2474H76.6753L76.6626 13.0211C76.6032 11.9734 76.2811 11.0514 75.6961 10.2551C75.1196 9.45879 74.3185 8.84271 73.2927 8.40685C72.2669 7.9626 71.0419 7.74048 69.6176 7.74048C68.2697 7.74048 67.0658 7.97098 66.0061 8.43199C64.9549 8.893 64.1283 9.53841 63.5264 10.3682C62.9329 11.1897 62.632 12.1536 62.6235 13.26V13.2726C62.6235 14.6389 63.0771 15.7537 63.9842 16.617C64.8913 17.4803 66.2562 18.0922 68.0789 18.4527L70.0245 18.8424C71.1606 19.0687 71.9702 19.3579 72.4534 19.71C72.9451 20.062 73.191 20.5398 73.191 21.1433V21.1558C73.191 21.6169 73.0511 22.0234 72.7713 22.3754C72.4915 22.7275 72.0931 22.9999 71.576 23.1927C71.0588 23.3855 70.4442 23.4819 69.7321 23.4819C69.0369 23.4819 68.4138 23.3855 67.8627 23.1927C67.3202 22.9999 66.8751 22.7359 66.5275 22.4006C66.1884 22.0569 65.9807 21.6546 65.9044 21.1936L65.8789 21.0553H62.242L62.2547 21.2564C62.331 22.3629 62.6744 23.3142 63.2848 24.1105C63.9036 24.8984 64.7514 25.5061 65.8281 25.9336C66.9132 26.3527 68.1849 26.5622 69.643 26.5622Z" fill="#D9D7D7"/>
<path d="M78.2394 26.2228H82.385L87.2936 18.4401L84.7503 19.8608H86.5179L90.549 26.2228H94.9235L88.082 15.7746L88.9849 18.855V17.1073L94.9998 8.07995H90.7144L85.9711 16.0889L88.4635 14.6179H86.6959L82.7919 8.07995H78.2776L84.0763 17.0445V18.7796L84.9538 15.6992L78.2394 26.2228Z" fill="#D9D7D7"/>
</svg>
