<svg width="96" height="36" viewBox="0 0 96 36" fill="none" xmlns="http://www.w3.org/2000/svg">
<rect x="0.643066" y="0.619141" width="34.7017" height="34.762" rx="5" fill="#3BB6D7"/>
<path d="M17.5903 28.1055L26.676 22.8508V12.3413L17.5903 7.08661L8.50468 12.3413V22.8508L17.5903 28.1055Z" fill="white"/>
<path d="M45.0684 26.8421H52.1011C53.9376 26.8421 55.5032 26.4817 56.7981 25.7609C58.0929 25.04 59.0831 23.9965 59.7686 22.6302C60.4626 21.2639 60.8095 19.6169 60.8095 17.689V17.6639C60.8095 15.7528 60.4626 14.1309 59.7686 12.7981C59.0831 11.4654 58.0887 10.4512 56.7854 9.75546C55.4905 9.05138 53.9291 8.69933 52.1011 8.69933H45.0684V26.8421ZM48.9021 23.7115V11.83H51.6187C52.7358 11.83 53.6879 12.0563 54.475 12.5089C55.262 12.9616 55.8629 13.6238 56.2776 14.4955C56.6923 15.3672 56.8996 16.4317 56.8996 17.689V17.7142C56.8996 19.0218 56.6965 20.1198 56.2903 21.0083C55.8841 21.8968 55.2874 22.5715 54.5004 23.0325C53.7218 23.4852 52.7612 23.7115 51.6187 23.7115H48.9021Z" fill="black"/>
<path d="M70.1654 27.1816C71.7057 27.1816 73.0259 26.9511 74.1261 26.4901C75.2263 26.0207 76.0683 25.3585 76.6523 24.5036C77.2447 23.6402 77.5409 22.626 77.5409 21.4609V21.4483C77.5409 20.0234 77.0966 18.9044 76.208 18.0914C75.3194 17.2699 73.9103 16.6706 71.9807 16.2934L70.0511 15.9037C68.9933 15.6857 68.2189 15.4007 67.728 15.0487C67.2372 14.6966 66.9918 14.2314 66.9918 13.6531V13.6405C66.9918 13.2047 67.1187 12.8233 67.3726 12.4964C67.635 12.1695 67.9989 11.9138 68.4643 11.7294C68.9383 11.5366 69.4968 11.4402 70.14 11.4402C70.7832 11.4402 71.346 11.5324 71.8284 11.7168C72.3192 11.9013 72.7128 12.1611 73.009 12.4964C73.3052 12.8317 73.4871 13.2382 73.5548 13.716L73.5675 13.8668H77.1855L77.1728 13.6405C77.1135 12.5928 76.7919 11.6707 76.208 10.8745C75.6325 10.0782 74.8327 9.46209 73.8087 9.02623C72.7847 8.58199 71.5618 8.35986 70.14 8.35986C68.7944 8.35986 67.5926 8.59037 66.5348 9.05138C65.4854 9.51239 64.6602 10.1578 64.0593 10.9876C63.4669 11.8091 63.1665 12.773 63.158 13.8794V13.892C63.158 15.2582 63.6108 16.373 64.5163 17.2364C65.4219 18.0997 66.7844 18.7116 68.604 19.072L70.5462 19.4618C71.6803 19.6881 72.4885 19.9773 72.9709 20.3293C73.4617 20.6814 73.7072 21.1592 73.7072 21.7627V21.7752C73.7072 22.2362 73.5675 22.6428 73.2882 22.9948C73.009 23.3469 72.6112 23.6193 72.095 23.8121C71.5787 24.0048 70.9651 24.1012 70.2543 24.1012C69.5603 24.1012 68.9383 24.0048 68.3882 23.8121C67.8465 23.6193 67.4022 23.3552 67.0552 23.02C66.7167 22.6763 66.5094 22.274 66.4332 21.813L66.4078 21.6746H62.7772L62.7899 21.8758C62.8661 22.9822 63.2088 23.9336 63.8181 24.7299C64.4359 25.5178 65.2822 26.1255 66.357 26.553C67.4403 26.9721 68.7098 27.1816 70.1654 27.1816Z" fill="black"/>
<path d="M78.7469 26.8421H82.8853L87.7854 19.0595L85.2465 20.4802H87.011L91.0352 26.8421H95.4021L88.5724 16.394L89.4737 19.4744V17.7267L95.4782 8.69933H91.2002L86.4651 16.7083L88.9533 15.2373H87.1887L83.2915 8.69933H78.785L84.5737 17.6639V19.3989L85.4496 16.3186L78.7469 26.8421Z" fill="black"/>
</svg>
