<svg width="486" height="371" viewBox="0 0 486 371" fill="none" xmlns="http://www.w3.org/2000/svg">
<g filter="url(#filter0_b_1528_7088)">
<ellipse cx="253.963" cy="77.5" rx="77.2314" ry="77.5" fill="#222020"/>
<path d="M330.694 77.5C330.694 120.028 296.339 154.5 253.963 154.5C211.587 154.5 177.231 120.028 177.231 77.5C177.231 34.9724 211.587 0.5 253.963 0.5C296.339 0.5 330.694 34.9724 330.694 77.5Z" stroke="#404040"/>
</g>
<g filter="url(#filter1_f_1528_7088)">
<rect x="366" y="259" width="80" height="80" rx="5" fill="#3BB6D7"/>
<path d="M405.07 322.256L426.016 310.163V285.977L405.07 273.884L384.124 285.977V310.163L405.07 322.256Z" fill="white"/>
</g>
<g filter="url(#filter2_b_1528_7088)">
<ellipse cx="408.425" cy="293.5" rx="77.2314" ry="77.5" fill="#222020" fill-opacity="0.8"/>
<path d="M485.156 293.5C485.156 336.028 450.801 370.5 408.425 370.5C366.049 370.5 331.693 336.028 331.693 293.5C331.693 250.972 366.049 216.5 408.425 216.5C450.801 216.5 485.156 250.972 485.156 293.5Z" stroke="#404040"/>
</g>
<path d="M296.311 81.5968L253.46 107.33L210.618 81.5833L210.613 91.2534L253.455 117L296.306 91.2669L296.311 81.5968Z" fill="#9F40FD"/>
<path d="M296.315 65.795L253.464 91.528L210.618 65.7815V75.9693L253.46 101.716L296.311 75.9828L296.315 65.795Z" fill="#9F40FD"/>
<path d="M270.266 47.4946L246.154 61.5316L246.163 61.5451L253.982 66.0966L270.271 56.6155L278.741 61.5496L253.96 75.9783L229.183 61.5406L261.792 42.5605L253.964 38L213.532 61.5406L253.96 85.0948L294.396 61.5496L270.266 47.4946Z" fill="#9F40FD"/>
<g filter="url(#filter3_b_1528_7088)">
<ellipse cx="77.5746" cy="293.5" rx="77.2314" ry="77.5" fill="#222020"/>
<path d="M154.306 293.5C154.306 336.028 119.951 370.5 77.5746 370.5C35.1987 370.5 0.843262 336.028 0.843262 293.5C0.843262 250.972 35.1987 216.5 77.5746 216.5C119.951 216.5 154.306 250.972 154.306 293.5Z" stroke="#404040"/>
</g>
<path d="M120.406 298.59L77.3156 324.329L34.2515 298.59L34.2246 308.259L77.3156 333.998L120.406 308.259V298.59Z" fill="#0D9488"/>
<path d="M120.411 282.789L77.3199 308.528L34.2559 282.789V292.971L77.3199 318.711L120.411 292.971V282.789Z" fill="#0D9488"/>
<path d="M77.9654 255L85.6631 259.483L52.8806 278.552L61.4396 283.521L94.2221 264.453L100.628 268.126L112.928 275.256L118.553 278.498L77.8308 302.103L69.9178 297.485L102.754 278.552L94.1952 273.582L61.3588 292.542L37.1084 278.498L77.9654 255Z" fill="#0D9488"/>
<path d="M364.078 297C364.078 290.373 369.451 285 376.078 285H439.773C446.401 285 451.773 290.373 451.773 297V301C451.773 307.627 446.401 313 439.773 313H376.078C369.451 313 364.078 307.627 364.078 301V297Z" fill="#0EA5E9"/>
<path d="M377.561 304.15C378.103 304.15 378.559 304.036 378.928 303.809C379.301 303.581 379.575 303.266 379.748 302.865H379.864V304H381.566V296.528H379.864V300.883C379.864 301.257 379.8 301.58 379.673 301.854C379.545 302.127 379.354 302.339 379.099 302.489C378.848 302.64 378.54 302.715 378.176 302.715C377.661 302.715 377.289 302.569 377.062 302.277C376.834 301.986 376.72 301.55 376.72 300.972V296.528H375.018V301.361C375.018 301.954 375.113 302.46 375.305 302.879C375.496 303.294 375.781 303.61 376.159 303.829C376.537 304.043 377.005 304.15 377.561 304.15ZM383.645 306.481H385.347V302.811H385.463C385.595 303.079 385.773 303.312 385.996 303.508C386.219 303.704 386.479 303.856 386.775 303.966C387.072 304.071 387.391 304.123 387.732 304.123C388.361 304.123 388.904 303.968 389.359 303.658C389.82 303.344 390.175 302.899 390.426 302.325C390.676 301.751 390.802 301.067 390.802 300.274V300.261C390.802 299.472 390.674 298.791 390.419 298.217C390.168 297.638 389.813 297.191 389.353 296.877C388.897 296.562 388.357 296.405 387.732 296.405C387.382 296.405 387.06 296.458 386.769 296.562C386.477 296.667 386.219 296.815 385.996 297.007C385.777 297.198 385.6 297.428 385.463 297.697H385.347V296.528H383.645V306.481ZM387.199 302.688C386.816 302.688 386.484 302.592 386.201 302.4C385.919 302.204 385.7 301.926 385.545 301.566C385.395 301.202 385.319 300.769 385.319 300.268V300.254C385.319 299.753 385.395 299.322 385.545 298.962C385.7 298.602 385.916 298.326 386.194 298.135C386.477 297.939 386.812 297.841 387.199 297.841C387.587 297.841 387.919 297.939 388.197 298.135C388.475 298.326 388.689 298.602 388.84 298.962C388.99 299.322 389.065 299.755 389.065 300.261V300.274C389.065 300.771 388.99 301.202 388.84 301.566C388.689 301.926 388.475 302.204 388.197 302.4C387.919 302.592 387.587 302.688 387.199 302.688ZM395.724 304.15C396.357 304.15 396.899 304.046 397.351 303.836C397.802 303.622 398.162 303.323 398.431 302.94C398.704 302.558 398.882 302.113 398.964 301.607L398.971 301.546L397.371 301.553L397.357 301.58C397.253 301.972 397.063 302.268 396.79 302.469C396.521 302.669 396.166 302.77 395.724 302.77C395.336 302.77 395.006 302.672 394.732 302.476C394.459 302.275 394.247 301.988 394.097 301.614C393.951 301.236 393.878 300.783 393.878 300.254V300.24C393.878 299.716 393.951 299.27 394.097 298.9C394.243 298.531 394.452 298.249 394.726 298.053C395.004 297.857 395.336 297.759 395.724 297.759C396.188 297.759 396.558 297.875 396.831 298.107C397.109 298.34 397.287 298.638 397.364 299.003L397.371 299.023H398.978V298.996C398.914 298.477 398.745 298.023 398.472 297.636C398.203 297.244 397.836 296.938 397.371 296.72C396.911 296.496 396.359 296.385 395.717 296.385C394.969 296.385 394.329 296.54 393.796 296.85C393.263 297.155 392.855 297.595 392.572 298.169C392.29 298.743 392.148 299.434 392.148 300.24V300.254C392.148 301.065 392.29 301.762 392.572 302.346C392.855 302.929 393.263 303.376 393.796 303.686C394.329 303.995 394.972 304.15 395.724 304.15ZM403.824 304.15C404.572 304.15 405.212 303.995 405.745 303.686C406.283 303.371 406.695 302.924 406.982 302.346C407.274 301.767 407.42 301.074 407.42 300.268V300.254C407.42 299.452 407.274 298.761 406.982 298.183C406.691 297.604 406.276 297.16 405.738 296.85C405.205 296.54 404.567 296.385 403.824 296.385C403.081 296.385 402.441 296.54 401.903 296.85C401.37 297.16 400.958 297.606 400.666 298.189C400.374 298.768 400.229 299.456 400.229 300.254V300.268C400.229 301.074 400.372 301.767 400.659 302.346C400.951 302.924 401.366 303.371 401.903 303.686C402.441 303.995 403.081 304.15 403.824 304.15ZM403.824 302.77C403.428 302.77 403.09 302.672 402.812 302.476C402.539 302.28 402.329 301.995 402.184 301.621C402.038 301.247 401.965 300.799 401.965 300.274V300.261C401.965 299.732 402.038 299.283 402.184 298.914C402.329 298.54 402.541 298.256 402.819 298.06C403.097 297.859 403.432 297.759 403.824 297.759C404.216 297.759 404.549 297.859 404.822 298.06C405.1 298.256 405.312 298.54 405.458 298.914C405.604 299.283 405.677 299.732 405.677 300.261V300.274C405.677 300.799 405.604 301.247 405.458 301.621C405.312 301.99 405.1 302.275 404.822 302.476C404.549 302.672 404.216 302.77 403.824 302.77ZM409.129 304H410.831V299.454C410.831 299.144 410.893 298.866 411.016 298.62C411.143 298.369 411.316 298.174 411.535 298.032C411.758 297.886 412.009 297.813 412.287 297.813C412.706 297.813 413.035 297.934 413.271 298.176C413.513 298.413 413.634 298.739 413.634 299.153V304H415.336V299.331C415.336 299.044 415.395 298.786 415.514 298.559C415.637 298.331 415.808 298.151 416.026 298.019C416.245 297.882 416.503 297.813 416.799 297.813C417.255 297.813 417.594 297.937 417.817 298.183C418.041 298.424 418.152 298.789 418.152 299.276V304H419.854V298.859C419.854 298.344 419.757 297.902 419.561 297.533C419.369 297.164 419.093 296.882 418.733 296.686C418.378 296.485 417.95 296.385 417.448 296.385C417.102 296.385 416.778 296.442 416.478 296.556C416.181 296.665 415.922 296.822 415.698 297.027C415.479 297.228 415.309 297.463 415.186 297.731H415.062C414.958 297.453 414.807 297.214 414.611 297.014C414.415 296.813 414.181 296.658 413.907 296.549C413.638 296.439 413.335 296.385 412.998 296.385C412.506 296.385 412.08 296.499 411.72 296.727C411.364 296.954 411.107 297.276 410.947 297.69H410.831V296.528H409.129V304ZM421.878 304H423.573V296.528H421.878V304ZM422.732 295.277C423.01 295.277 423.247 295.179 423.443 294.983C423.644 294.787 423.744 294.553 423.744 294.279C423.744 293.997 423.644 293.76 423.443 293.568C423.247 293.372 423.01 293.274 422.732 293.274C422.454 293.274 422.215 293.372 422.015 293.568C421.814 293.76 421.714 293.997 421.714 294.279C421.714 294.553 421.814 294.787 422.015 294.983C422.215 295.179 422.454 295.277 422.732 295.277ZM425.672 304H427.374V299.646C427.374 299.272 427.44 298.948 427.572 298.675C427.704 298.401 427.894 298.189 428.14 298.039C428.386 297.889 428.677 297.813 429.015 297.813C429.53 297.813 429.908 297.959 430.149 298.251C430.396 298.543 430.519 298.98 430.519 299.563V304H432.221V299.167C432.221 298.278 432 297.592 431.558 297.109C431.116 296.626 430.478 296.385 429.644 296.385C429.106 296.385 428.657 296.499 428.297 296.727C427.937 296.954 427.668 297.271 427.49 297.677H427.374V296.528H425.672V304ZM437.443 306.625C438.173 306.625 438.804 306.511 439.337 306.283C439.87 306.055 440.28 305.729 440.567 305.306C440.859 304.886 441.005 304.39 441.005 303.815V296.528H439.303V297.759H439.214C439.073 297.476 438.89 297.235 438.667 297.034C438.448 296.834 438.193 296.679 437.901 296.569C437.614 296.46 437.298 296.405 436.951 296.405C436.309 296.405 435.755 296.56 435.29 296.87C434.83 297.18 434.474 297.608 434.224 298.155C433.973 298.702 433.848 299.336 433.848 300.056V300.069C433.848 300.776 433.971 301.398 434.217 301.936C434.467 302.473 434.823 302.895 435.283 303.2C435.743 303.501 436.288 303.651 436.917 303.651C437.263 303.651 437.58 303.606 437.867 303.515C438.159 303.419 438.416 303.278 438.64 303.091C438.868 302.904 439.052 302.676 439.193 302.407H439.31V303.843C439.31 304.321 439.148 304.69 438.824 304.95C438.505 305.21 438.054 305.34 437.471 305.34C436.997 305.34 436.618 305.262 436.336 305.107C436.058 304.957 435.892 304.763 435.837 304.526L435.823 304.506H434.128L434.121 304.526C434.18 304.946 434.347 305.312 434.62 305.627C434.894 305.946 435.267 306.192 435.741 306.365C436.22 306.538 436.787 306.625 437.443 306.625ZM437.443 302.298C437.047 302.298 436.71 302.204 436.432 302.018C436.158 301.826 435.949 301.564 435.803 301.231C435.661 300.894 435.591 300.507 435.591 300.069V300.056C435.591 299.614 435.661 299.226 435.803 298.894C435.949 298.556 436.158 298.294 436.432 298.107C436.71 297.916 437.047 297.82 437.443 297.82C437.835 297.82 438.173 297.916 438.455 298.107C438.738 298.294 438.954 298.556 439.104 298.894C439.259 299.226 439.337 299.614 439.337 300.056V300.069C439.337 300.511 439.259 300.899 439.104 301.231C438.954 301.564 438.738 301.826 438.455 302.018C438.173 302.204 437.835 302.298 437.443 302.298Z" fill="white"/>
<line y1="-0.5" x2="128.471" y2="-0.5" transform="matrix(-0.705878 0.708333 -0.705878 -0.708333 193.668 125)" stroke="#AEAEAE" stroke-dasharray="5 5"/>
<line y1="-0.5" x2="128.471" y2="-0.5" transform="matrix(0.705878 0.708333 0.705878 -0.708333 315.246 126)" stroke="#AEAEAE" stroke-dasharray="5 5"/>
<defs>
<filter id="filter0_b_1528_7088" x="156.731" y="-20" width="194.463" height="195" filterUnits="userSpaceOnUse" color-interpolation-filters="sRGB">
<feFlood flood-opacity="0" result="BackgroundImageFix"/>
<feGaussianBlur in="BackgroundImageFix" stdDeviation="10"/>
<feComposite in2="SourceAlpha" operator="in" result="effect1_backgroundBlur_1528_7088"/>
<feBlend mode="normal" in="SourceGraphic" in2="effect1_backgroundBlur_1528_7088" result="shape"/>
</filter>
<filter id="filter1_f_1528_7088" x="356" y="249" width="100" height="100" filterUnits="userSpaceOnUse" color-interpolation-filters="sRGB">
<feFlood flood-opacity="0" result="BackgroundImageFix"/>
<feBlend mode="normal" in="SourceGraphic" in2="BackgroundImageFix" result="shape"/>
<feGaussianBlur stdDeviation="5" result="effect1_foregroundBlur_1528_7088"/>
</filter>
<filter id="filter2_b_1528_7088" x="321.193" y="206" width="174.463" height="175" filterUnits="userSpaceOnUse" color-interpolation-filters="sRGB">
<feFlood flood-opacity="0" result="BackgroundImageFix"/>
<feGaussianBlur in="BackgroundImageFix" stdDeviation="5"/>
<feComposite in2="SourceAlpha" operator="in" result="effect1_backgroundBlur_1528_7088"/>
<feBlend mode="normal" in="SourceGraphic" in2="effect1_backgroundBlur_1528_7088" result="shape"/>
</filter>
<filter id="filter3_b_1528_7088" x="-19.6567" y="196" width="194.463" height="195" filterUnits="userSpaceOnUse" color-interpolation-filters="sRGB">
<feFlood flood-opacity="0" result="BackgroundImageFix"/>
<feGaussianBlur in="BackgroundImageFix" stdDeviation="10"/>
<feComposite in2="SourceAlpha" operator="in" result="effect1_backgroundBlur_1528_7088"/>
<feBlend mode="normal" in="SourceGraphic" in2="effect1_backgroundBlur_1528_7088" result="shape"/>
</filter>
</defs>
</svg>
