<svg width="487" height="371" viewBox="0 0 487 371" fill="none" xmlns="http://www.w3.org/2000/svg">
<rect x="369" y="254" width="80" height="80" rx="5" fill="#3BB6D7"/>
<path d="M408.07 317.256L429.015 305.163V280.977L408.07 268.884L387.124 280.977V305.163L408.07 317.256Z" fill="white"/>
<g filter="url(#filter0_b_1637_7249)">
<circle cx="254.5" cy="77.5" r="77.5" fill="white" fill-opacity="0.8"/>
<circle cx="254.5" cy="77.5" r="77" stroke="#E6E6E6"/>
</g>
<g filter="url(#filter1_b_1637_7249)">
<circle cx="409.5" cy="293.5" r="77.5" fill="white" fill-opacity="0.8"/>
<circle cx="409.5" cy="293.5" r="77" stroke="#E6E6E6"/>
</g>
<path d="M296.996 81.5968L253.996 107.33L211.004 81.5833L211 91.2534L253.991 117L296.991 91.2669L296.996 81.5968Z" fill="#9F40FD"/>
<path d="M297 65.795L254 91.528L211.004 65.7815V75.9693L253.996 101.716L296.996 75.9828L297 65.795Z" fill="#9F40FD"/>
<path d="M270.861 47.4946L246.665 61.5316L246.674 61.5451L254.519 66.0966L270.865 56.6155L279.365 61.5496L254.497 75.9783L229.634 61.5406L262.356 42.5605L254.502 38L213.929 61.5406L254.497 85.0948L295.074 61.5496L270.861 47.4946Z" fill="#9F40FD"/>
<g filter="url(#filter2_b_1637_7249)">
<circle cx="77.5" cy="293.5" r="77.5" fill="white" fill-opacity="0.8"/>
<circle cx="77.5" cy="293.5" r="77" stroke="#E6E6E6"/>
</g>
<path d="M120.482 298.59L77.2408 324.329L34.027 298.59L34 308.259L77.2408 333.998L120.482 308.259V298.59Z" fill="#0D9488"/>
<path d="M120.482 282.789L77.2412 308.528L34.0273 282.789V292.971L77.2412 318.711L120.482 292.971V282.789Z" fill="#0D9488"/>
<path d="M77.8936 255L85.6181 259.483L52.7216 278.552L61.3103 283.521L94.2069 264.453L100.635 268.126L112.978 275.256L118.623 278.498L77.7586 302.103L69.8181 297.485L102.769 278.552L94.1798 273.582L61.2293 292.542L36.8945 278.498L77.8936 255Z" fill="#0D9488"/>
<path d="M365 297C365 290.373 370.373 285 377 285H441C447.627 285 453 290.373 453 297V301C453 307.627 447.627 313 441 313H377C370.373 313 365 307.627 365 301V297Z" fill="#0EA5E9"/>
<path d="M378.514 304.15C379.056 304.15 379.512 304.036 379.881 303.809C380.255 303.581 380.528 303.266 380.701 302.865H380.817V304H382.52V296.528H380.817V300.883C380.817 301.257 380.754 301.58 380.626 301.854C380.498 302.127 380.307 302.339 380.052 302.489C379.801 302.64 379.493 302.715 379.129 302.715C378.614 302.715 378.243 302.569 378.015 302.277C377.787 301.986 377.673 301.55 377.673 300.972V296.528H375.971V301.361C375.971 301.954 376.066 302.46 376.258 302.879C376.449 303.294 376.734 303.61 377.112 303.829C377.491 304.043 377.958 304.15 378.514 304.15ZM384.598 306.481H386.3V302.811H386.416C386.548 303.079 386.726 303.312 386.949 303.508C387.173 303.704 387.432 303.856 387.729 303.966C388.025 304.071 388.344 304.123 388.686 304.123C389.314 304.123 389.857 303.968 390.312 303.658C390.773 303.344 391.128 302.899 391.379 302.325C391.63 301.751 391.755 301.067 391.755 300.274V300.261C391.755 299.472 391.627 298.791 391.372 298.217C391.121 297.638 390.766 297.191 390.306 296.877C389.85 296.562 389.31 296.405 388.686 296.405C388.335 296.405 388.013 296.458 387.722 296.562C387.43 296.667 387.173 296.815 386.949 297.007C386.73 297.198 386.553 297.428 386.416 297.697H386.3V296.528H384.598V306.481ZM388.152 302.688C387.77 302.688 387.437 302.592 387.154 302.4C386.872 302.204 386.653 301.926 386.498 301.566C386.348 301.202 386.272 300.769 386.272 300.268V300.254C386.272 299.753 386.348 299.322 386.498 298.962C386.653 298.602 386.869 298.326 387.147 298.135C387.43 297.939 387.765 297.841 388.152 297.841C388.54 297.841 388.872 297.939 389.15 298.135C389.428 298.326 389.643 298.602 389.793 298.962C389.943 299.322 390.019 299.755 390.019 300.261V300.274C390.019 300.771 389.943 301.202 389.793 301.566C389.643 301.926 389.428 302.204 389.15 302.4C388.872 302.592 388.54 302.688 388.152 302.688ZM396.677 304.15C397.31 304.15 397.853 304.046 398.304 303.836C398.755 303.622 399.115 303.323 399.384 302.94C399.657 302.558 399.835 302.113 399.917 301.607L399.924 301.546L398.324 301.553L398.311 301.58C398.206 301.972 398.017 302.268 397.743 302.469C397.474 302.669 397.119 302.77 396.677 302.77C396.289 302.77 395.959 302.672 395.686 302.476C395.412 302.275 395.2 301.988 395.05 301.614C394.904 301.236 394.831 300.783 394.831 300.254V300.24C394.831 299.716 394.904 299.27 395.05 298.9C395.196 298.531 395.405 298.249 395.679 298.053C395.957 297.857 396.289 297.759 396.677 297.759C397.142 297.759 397.511 297.875 397.784 298.107C398.062 298.34 398.24 298.638 398.317 299.003L398.324 299.023H399.931V298.996C399.867 298.477 399.698 298.023 399.425 297.636C399.156 297.244 398.789 296.938 398.324 296.72C397.864 296.496 397.312 296.385 396.67 296.385C395.923 296.385 395.282 296.54 394.749 296.85C394.216 297.155 393.808 297.595 393.525 298.169C393.243 298.743 393.102 299.434 393.102 300.24V300.254C393.102 301.065 393.243 301.762 393.525 302.346C393.808 302.929 394.216 303.376 394.749 303.686C395.282 303.995 395.925 304.15 396.677 304.15ZM404.777 304.15C405.525 304.15 406.165 303.995 406.698 303.686C407.236 303.371 407.648 302.924 407.936 302.346C408.227 301.767 408.373 301.074 408.373 300.268V300.254C408.373 299.452 408.227 298.761 407.936 298.183C407.644 297.604 407.229 297.16 406.691 296.85C406.158 296.54 405.52 296.385 404.777 296.385C404.035 296.385 403.394 296.54 402.856 296.85C402.323 297.16 401.911 297.606 401.619 298.189C401.327 298.768 401.182 299.456 401.182 300.254V300.268C401.182 301.074 401.325 301.767 401.612 302.346C401.904 302.924 402.319 303.371 402.856 303.686C403.394 303.995 404.035 304.15 404.777 304.15ZM404.777 302.77C404.381 302.77 404.044 302.672 403.766 302.476C403.492 302.28 403.283 301.995 403.137 301.621C402.991 301.247 402.918 300.799 402.918 300.274V300.261C402.918 299.732 402.991 299.283 403.137 298.914C403.283 298.54 403.494 298.256 403.772 298.06C404.05 297.859 404.385 297.759 404.777 297.759C405.169 297.759 405.502 297.859 405.775 298.06C406.053 298.256 406.265 298.54 406.411 298.914C406.557 299.283 406.63 299.732 406.63 300.261V300.274C406.63 300.799 406.557 301.247 406.411 301.621C406.265 301.99 406.053 302.275 405.775 302.476C405.502 302.672 405.169 302.77 404.777 302.77ZM410.082 304H411.784V299.454C411.784 299.144 411.846 298.866 411.969 298.62C412.096 298.369 412.27 298.174 412.488 298.032C412.712 297.886 412.962 297.813 413.24 297.813C413.66 297.813 413.988 297.934 414.225 298.176C414.466 298.413 414.587 298.739 414.587 299.153V304H416.289V299.331C416.289 299.044 416.348 298.786 416.467 298.559C416.59 298.331 416.761 298.151 416.979 298.019C417.198 297.882 417.456 297.813 417.752 297.813C418.208 297.813 418.547 297.937 418.771 298.183C418.994 298.424 419.105 298.789 419.105 299.276V304H420.808V298.859C420.808 298.344 420.71 297.902 420.514 297.533C420.322 297.164 420.047 296.882 419.687 296.686C419.331 296.485 418.903 296.385 418.401 296.385C418.055 296.385 417.731 296.442 417.431 296.556C417.134 296.665 416.875 296.822 416.651 297.027C416.433 297.228 416.262 297.463 416.139 297.731H416.016C415.911 297.453 415.76 297.214 415.564 297.014C415.368 296.813 415.134 296.658 414.86 296.549C414.591 296.439 414.288 296.385 413.951 296.385C413.459 296.385 413.033 296.499 412.673 296.727C412.317 296.954 412.06 297.276 411.9 297.69H411.784V296.528H410.082V304ZM422.831 304H424.526V296.528H422.831V304ZM423.686 295.277C423.964 295.277 424.201 295.179 424.396 294.983C424.597 294.787 424.697 294.553 424.697 294.279C424.697 293.997 424.597 293.76 424.396 293.568C424.201 293.372 423.964 293.274 423.686 293.274C423.408 293.274 423.168 293.372 422.968 293.568C422.767 293.76 422.667 293.997 422.667 294.279C422.667 294.553 422.767 294.787 422.968 294.983C423.168 295.179 423.408 295.277 423.686 295.277ZM426.625 304H428.327V299.646C428.327 299.272 428.393 298.948 428.525 298.675C428.658 298.401 428.847 298.189 429.093 298.039C429.339 297.889 429.631 297.813 429.968 297.813C430.483 297.813 430.861 297.959 431.103 298.251C431.349 298.543 431.472 298.98 431.472 299.563V304H433.174V299.167C433.174 298.278 432.953 297.592 432.511 297.109C432.069 296.626 431.431 296.385 430.597 296.385C430.059 296.385 429.61 296.499 429.25 296.727C428.89 296.954 428.621 297.271 428.443 297.677H428.327V296.528H426.625V304ZM438.396 306.625C439.126 306.625 439.757 306.511 440.29 306.283C440.823 306.055 441.233 305.729 441.521 305.306C441.812 304.886 441.958 304.39 441.958 303.815V296.528H440.256V297.759H440.167C440.026 297.476 439.843 297.235 439.62 297.034C439.401 296.834 439.146 296.679 438.854 296.569C438.567 296.46 438.251 296.405 437.904 296.405C437.262 296.405 436.708 296.56 436.243 296.87C435.783 297.18 435.427 297.608 435.177 298.155C434.926 298.702 434.801 299.336 434.801 300.056V300.069C434.801 300.776 434.924 301.398 435.17 301.936C435.421 302.473 435.776 302.895 436.236 303.2C436.697 303.501 437.241 303.651 437.87 303.651C438.216 303.651 438.533 303.606 438.82 303.515C439.112 303.419 439.369 303.278 439.593 303.091C439.821 302.904 440.005 302.676 440.146 302.407H440.263V303.843C440.263 304.321 440.101 304.69 439.777 304.95C439.458 305.21 439.007 305.34 438.424 305.34C437.95 305.34 437.572 305.262 437.289 305.107C437.011 304.957 436.845 304.763 436.79 304.526L436.776 304.506H435.081L435.074 304.526C435.133 304.946 435.3 305.312 435.573 305.627C435.847 305.946 436.22 306.192 436.694 306.365C437.173 306.538 437.74 306.625 438.396 306.625ZM438.396 302.298C438 302.298 437.663 302.204 437.385 302.018C437.111 301.826 436.902 301.564 436.756 301.231C436.615 300.894 436.544 300.507 436.544 300.069V300.056C436.544 299.614 436.615 299.226 436.756 298.894C436.902 298.556 437.111 298.294 437.385 298.107C437.663 297.916 438 297.82 438.396 297.82C438.788 297.82 439.126 297.916 439.408 298.107C439.691 298.294 439.907 298.556 440.058 298.894C440.213 299.226 440.29 299.614 440.29 300.056V300.069C440.29 300.511 440.213 300.899 440.058 301.231C439.907 301.564 439.691 301.826 439.408 302.018C439.126 302.204 438.788 302.298 438.396 302.298Z" fill="white"/>
<line x1="194.354" y1="125.354" x2="103.354" y2="216.354" stroke="#AEAEAE" stroke-dasharray="5 5"/>
<line y1="-0.5" x2="128.693" y2="-0.5" transform="matrix(0.707107 0.707107 0.707107 -0.707107 316 126)" stroke="#AEAEAE" stroke-dasharray="5 5"/>
<defs>
<filter id="filter0_b_1637_7249" x="157" y="-20" width="195" height="195" filterUnits="userSpaceOnUse" color-interpolation-filters="sRGB">
<feFlood flood-opacity="0" result="BackgroundImageFix"/>
<feGaussianBlur in="BackgroundImageFix" stdDeviation="10"/>
<feComposite in2="SourceAlpha" operator="in" result="effect1_backgroundBlur_1637_7249"/>
<feBlend mode="normal" in="SourceGraphic" in2="effect1_backgroundBlur_1637_7249" result="shape"/>
</filter>
<filter id="filter1_b_1637_7249" x="327" y="211" width="165" height="165" filterUnits="userSpaceOnUse" color-interpolation-filters="sRGB">
<feFlood flood-opacity="0" result="BackgroundImageFix"/>
<feGaussianBlur in="BackgroundImageFix" stdDeviation="2.5"/>
<feComposite in2="SourceAlpha" operator="in" result="effect1_backgroundBlur_1637_7249"/>
<feBlend mode="normal" in="SourceGraphic" in2="effect1_backgroundBlur_1637_7249" result="shape"/>
</filter>
<filter id="filter2_b_1637_7249" x="-20" y="196" width="195" height="195" filterUnits="userSpaceOnUse" color-interpolation-filters="sRGB">
<feFlood flood-opacity="0" result="BackgroundImageFix"/>
<feGaussianBlur in="BackgroundImageFix" stdDeviation="10"/>
<feComposite in2="SourceAlpha" operator="in" result="effect1_backgroundBlur_1637_7249"/>
<feBlend mode="normal" in="SourceGraphic" in2="effect1_backgroundBlur_1637_7249" result="shape"/>
</filter>
</defs>
</svg>
