<svg width="108" height="36" viewBox="0 0 108 36" fill="none" xmlns="http://www.w3.org/2000/svg">
<g clip-path="url(#clip0_1362_8743)">
<path d="M40.0875 19.8616L20.3833 31.6109L0.691505 19.8616L0.679199 24.2753L20.3833 36.0246L40.0875 24.2753V19.8616Z" fill="#0D9488"/>
<path d="M40.0864 12.6484L20.3823 24.3978L0.69043 12.6484V17.2964L20.3823 29.0457L40.0864 17.2964V12.6484Z" fill="#0D9488"/>
<path d="M20.6797 -0.0371094L24.1996 2.00946L9.20921 10.7136L13.123 12.9821L28.1134 4.27796L31.0425 5.95467L36.667 9.20947L39.2393 10.6889L20.6182 21.4643L16.9998 19.356L32.0148 10.7136L28.1011 8.44508L13.086 17.0999L1.99707 10.6889L20.6797 -0.0371094Z" fill="#0D9488"/>
<path d="M53.4035 13.8453C53.4035 12.3412 54.0066 11.1207 55.225 10.2083C56.4311 9.29601 58.0557 8.83984 60.0864 8.83984C62.0679 8.83984 63.6556 9.30834 64.8617 10.233C66.0678 11.1577 66.6832 12.3905 66.7078 13.9316H62.7325C62.6833 13.2905 62.4248 12.785 61.9448 12.4275C61.4648 12.0576 60.8249 11.885 60.0372 11.885C59.2864 11.885 58.6957 12.0453 58.2403 12.3535C57.7972 12.6618 57.5634 13.0809 57.5634 13.5864C57.5634 14.3508 58.2526 14.9056 59.631 15.2261L62.6587 15.8796C64.2463 16.2371 65.3909 16.7549 66.0801 17.4207C66.7693 18.0987 67.1263 19.0234 67.1263 20.207C67.1263 21.7604 66.474 23.0179 65.1817 23.9672C63.8771 24.9166 62.1787 25.385 60.0864 25.385C57.9942 25.385 56.3327 24.9166 55.0773 23.9919C53.8219 23.0672 53.145 21.822 53.022 20.244H57.2311C57.3419 20.9097 57.6495 21.4275 58.1542 21.7974C58.6588 22.1672 59.348 22.3398 60.1972 22.3398C61.0095 22.3398 61.6618 22.1919 62.1294 21.8837C62.5971 21.5878 62.831 21.1686 62.831 20.6508C62.831 20.244 62.6833 19.9234 62.3879 19.6768C62.0925 19.4303 61.5879 19.233 60.8864 19.0604L57.9572 18.407C54.9173 17.7412 53.4035 16.2124 53.4035 13.8453Z" fill="#404040"/>
<path d="M79.7426 20.194H83.7056C83.4717 21.7475 82.6964 23.005 81.3795 23.9666C80.0626 24.9159 78.4257 25.3968 76.4811 25.3968C74.0443 25.3968 72.1366 24.6694 70.7582 23.2022C69.3797 21.7475 68.6782 19.7379 68.6782 17.1981C68.6782 14.6584 69.3674 12.6365 70.7459 11.1201C72.1243 9.60362 73.9827 8.85156 76.3211 8.85156C78.6103 8.85156 80.4441 9.56663 81.7979 11.0091C83.1517 12.4516 83.8409 14.3749 83.8409 16.7913V18.1105H72.9243V18.3817C72.9243 19.5159 73.2566 20.4406 73.9212 21.1433C74.5858 21.8461 75.4596 22.2036 76.555 22.2036C77.3426 22.2036 78.0195 22.0187 78.598 21.6612C79.1641 21.2913 79.5457 20.8105 79.7426 20.194ZM76.358 12.0324C75.4227 12.0324 74.6473 12.3529 74.0196 12.994C73.392 13.6351 73.0474 14.4488 72.9612 15.4475H79.681C79.6318 14.4365 79.2995 13.6105 78.6964 12.9817C78.0934 12.3529 77.318 12.0324 76.358 12.0324Z" fill="#404040"/>
<path d="M90.7547 25.2987C89.2286 25.2987 87.9609 24.8549 86.9517 23.9549C85.9425 23.0549 85.4502 21.9083 85.4502 20.4905C85.4502 19.0481 85.9794 17.9261 87.0502 17.1001C88.1086 16.2864 89.6347 15.8179 91.6162 15.6946L95.6038 15.4604V14.4124C95.6038 13.685 95.37 13.1056 94.89 12.6987C94.41 12.2796 93.77 12.0823 92.9454 12.0823C92.1577 12.0823 91.5177 12.2549 91.0131 12.6124C90.5208 12.97 90.2132 13.4508 90.1024 14.0426H86.1517C86.2256 12.4892 86.8902 11.2316 88.1455 10.27C89.4009 9.32066 91.0624 8.83984 93.13 8.83984C95.1607 8.83984 96.7853 9.32066 98.0037 10.2946C99.2222 11.2563 99.8375 12.5385 99.8375 14.1412V25.0522H95.6653V22.6234H95.5792C95.1484 23.4494 94.4838 24.1029 93.5977 24.5837C92.7116 25.0645 91.7639 25.2987 90.7547 25.2987ZM92.17 22.1796C93.13 22.1796 93.93 21.896 94.6069 21.3412C95.2715 20.7864 95.6038 20.0837 95.6038 19.233V18.0741L92.2685 18.2837C91.4562 18.3453 90.8408 18.5426 90.3978 18.8878C89.9547 19.233 89.7455 19.6892 89.7455 20.244C89.7455 20.8357 89.967 21.3042 90.4101 21.6494C90.8408 22.007 91.4316 22.1796 92.17 22.1796Z" fill="#404040"/>
<path d="M102.721 25.0513V3.68555H107.041V25.039H102.721V25.0513Z" fill="#404040"/>
</g>
<defs>
<clipPath id="clip0_1362_8743">
<rect width="106.336" height="36" fill="white" transform="translate(0.66748)"/>
</clipPath>
</defs>
</svg>
