<svg width="107" height="36" viewBox="0 0 107 36" fill="none" xmlns="http://www.w3.org/2000/svg">
<g clip-path="url(#clip0_1471_7047)">
<path d="M39.6929 19.8616L20.023 31.6109L0.365312 19.8616L0.353027 24.2753L20.023 36.0246L39.6929 24.2753V19.8616Z" fill="#0D9488"/>
<path d="M39.6962 12.6484L20.0263 24.3978L0.368652 12.6484V17.2964L20.0263 29.0457L39.6962 17.2964V12.6484Z" fill="#0D9488"/>
<path d="M20.3206 -0.0371094L23.8344 2.00946L8.87002 10.7136L12.777 12.9821L27.7414 4.27796L30.6654 5.95467L36.2802 9.20947L38.8479 10.6889L20.2592 21.4643L16.6471 19.356L31.636 10.7136L27.7291 8.44508L12.7401 17.0999L1.67041 10.6889L20.3206 -0.0371094Z" fill="#0D9488"/>
<path d="M52.9878 13.8453C52.9878 12.3412 53.5898 11.1207 54.8061 10.2083C56.0102 9.29601 57.6319 8.83984 59.6591 8.83984C61.6372 8.83984 63.2221 9.30834 64.4261 10.233C65.6301 11.1577 66.2444 12.3905 66.269 13.9316H62.3006C62.2515 13.2905 61.9935 12.785 61.5143 12.4275C61.0352 12.0576 60.3963 11.885 59.61 11.885C58.8605 11.885 58.2708 12.0453 57.8162 12.3535C57.3739 12.6618 57.1405 13.0809 57.1405 13.5864C57.1405 14.3508 57.8285 14.9056 59.2045 15.2261L62.2269 15.8796C63.8118 16.2371 64.9544 16.7549 65.6424 17.4207C66.3304 18.0987 66.6867 19.0234 66.6867 20.207C66.6867 21.7604 66.0356 23.0179 64.7455 23.9672C63.4432 24.9166 61.7477 25.385 59.6591 25.385C57.5705 25.385 55.9119 24.9166 54.6587 23.9919C53.4055 23.0672 52.7298 21.822 52.6069 20.244H56.8088C56.9193 20.9097 57.2265 21.4275 57.7302 21.7974C58.2339 22.1672 58.922 22.3398 59.7697 22.3398C60.5806 22.3398 61.2317 22.1919 61.6986 21.8837C62.1655 21.5878 62.3989 21.1686 62.3989 20.6508C62.3989 20.244 62.2515 19.9234 61.9566 19.6768C61.6617 19.4303 61.158 19.233 60.4577 19.0604L57.5336 18.407C54.499 17.7412 52.9878 16.2124 52.9878 13.8453Z" fill="#F6FAF9"/>
<path d="M79.28 20.194H83.2361C83.0027 21.7475 82.2287 23.005 80.9141 23.9666C79.5994 24.9159 77.9654 25.3968 76.0242 25.3968C73.5916 25.3968 71.6872 24.6694 70.3112 23.2022C68.9352 21.7475 68.2349 19.7379 68.2349 17.1981C68.2349 14.6584 68.9229 12.6365 70.2989 11.1201C71.675 9.60362 73.5301 8.85156 75.8645 8.85156C78.1497 8.85156 79.9803 9.56663 81.3318 11.0091C82.6832 12.4516 83.3713 14.3749 83.3713 16.7913V18.1105H72.4735V18.3817C72.4735 19.5159 72.8053 20.4406 73.4687 21.1433C74.1322 21.8461 75.0045 22.2036 76.0979 22.2036C76.8842 22.2036 77.56 22.0187 78.1374 21.6612C78.7026 21.2913 79.0834 20.8105 79.28 20.194ZM75.9014 12.0324C74.9676 12.0324 74.1936 12.3529 73.567 12.994C72.9404 13.6351 72.5964 14.4488 72.5104 15.4475H79.2186C79.1694 14.4365 78.8377 13.6105 78.2357 12.9817C77.6337 12.3529 76.8597 12.0324 75.9014 12.0324Z" fill="#F6FAF9"/>
<path d="M90.2723 25.2987C88.7489 25.2987 87.4834 24.8549 86.4759 23.9549C85.4685 23.0549 84.9771 21.9083 84.9771 20.4905C84.9771 19.0481 85.5054 17.9261 86.5742 17.1001C87.6308 16.2864 89.1543 15.8179 91.1323 15.6946L95.113 15.4604V14.4124C95.113 13.685 94.8796 13.1056 94.4004 12.6987C93.9213 12.2796 93.2824 12.0823 92.4592 12.0823C91.6729 12.0823 91.0341 12.2549 90.5303 12.6124C90.0389 12.97 89.7317 13.4508 89.6212 14.0426H85.6773C85.7511 12.4892 86.4145 11.2316 87.6677 10.27C88.9209 9.32066 90.5795 8.83984 92.6435 8.83984C94.6707 8.83984 96.2925 9.32066 97.5088 10.2946C98.7251 11.2563 99.3394 12.5385 99.3394 14.1412V25.0522H95.1745V22.6234H95.0885C94.6584 23.4494 93.995 24.1029 93.1104 24.5837C92.2258 25.0645 91.2798 25.2987 90.2723 25.2987ZM91.6852 22.1796C92.6435 22.1796 93.4421 21.896 94.1179 21.3412C94.7813 20.7864 95.113 20.0837 95.113 19.233V18.0741L91.7835 18.2837C90.9726 18.3453 90.3583 18.5426 89.916 18.8878C89.4737 19.233 89.2649 19.6892 89.2649 20.244C89.2649 20.8357 89.486 21.3042 89.9283 21.6494C90.3583 22.007 90.9481 22.1796 91.6852 22.1796Z" fill="#F6FAF9"/>
<path d="M102.218 25.0513V3.68555H106.531V25.039H102.218V25.0513Z" fill="#F6FAF9"/>
</g>
<defs>
<clipPath id="clip0_1471_7047">
<rect width="106.151" height="36" fill="white" transform="translate(0.337402)"/>
</clipPath>
</defs>
</svg>
